<?xml version="1.0" encoding="UTF-8" standalone="no"?>
<!-- Created with Inkscape (http://www.inkscape.org/) -->

<svg
   version="1.1"
   id="svg1"
   width="666.66669"
   height="666.66669"
   viewBox="0 0 666.66669 666.66669"
   xmlns="http://www.w3.org/2000/svg"
   xmlns:svg="http://www.w3.org/2000/svg">
  <defs
     id="defs1">
    <clipPath
       clipPathUnits="userSpaceOnUse"
       id="clipPath3">
      <path
         d="M 0,500 H 500 V 0 H 0 Z"
         transform="translate(-76.240202,-253.21871)"
         id="path3" />
    </clipPath>
    <clipPath
       clipPathUnits="userSpaceOnUse"
       id="clipPath5">
      <path
         d="M 0,500 H 500 V 0 H 0 Z"
         transform="translate(-81.6709,-77.749004)"
         id="path5" />
    </clipPath>
    <clipPath
       clipPathUnits="userSpaceOnUse"
       id="clipPath7">
      <path
         d="M 0,500 H 500 V 0 H 0 Z"
         transform="translate(-230.36871,-302.29541)"
         id="path7" />
    </clipPath>
    <clipPath
       clipPathUnits="userSpaceOnUse"
       id="clipPath9">
      <path
         d="M 0,500 H 500 V 0 H 0 Z"
         transform="translate(-153.1162,-286.02201)"
         id="path9" />
    </clipPath>
    <clipPath
       clipPathUnits="userSpaceOnUse"
       id="clipPath11">
      <path
         d="M 0,500 H 500 V 0 H 0 Z"
         transform="translate(-329.21391,-298.06451)"
         id="path11" />
    </clipPath>
    <clipPath
       clipPathUnits="userSpaceOnUse"
       id="clipPath13">
      <path
         d="M 0,500 H 500 V 0 H 0 Z"
         transform="translate(-322.07231,-51.909201)"
         id="path13" />
    </clipPath>
    <clipPath
       clipPathUnits="userSpaceOnUse"
       id="clipPath14">
      <path
         d="M 80.3253,219.846 H 419.341 V 155.961 H 80.3253 Z"
         transform="translate(-167.9956,-157.9209)"
         id="path14" />
    </clipPath>
    <clipPath
       clipPathUnits="userSpaceOnUse"
       id="clipPath16">
      <path
         d="M 0,500 H 500 V 0 H 0 Z"
         transform="matrix(1.3333333,0,0,-1.3333333,0,666.66667)"
         id="path16" />
    </clipPath>
    <clipPath
       clipPathUnits="userSpaceOnUse"
       id="clipPath18">
      <path
         d="M 0,500 H 500 V 0 H 0 Z"
         transform="translate(-325.11431,-181.20311)"
         id="path18" />
    </clipPath>
    <clipPath
       clipPathUnits="userSpaceOnUse"
       id="clipPath20">
      <path
         d="M 0,500 H 500 V 0 H 0 Z"
         transform="translate(-405.18651,-287.54001)"
         id="path20" />
    </clipPath>
    <clipPath
       clipPathUnits="userSpaceOnUse"
       id="clipPath22">
      <path
         d="M 0,500 H 500 V 0 H 0 Z"
         transform="translate(-405.18651,-287.54001)"
         id="path22" />
    </clipPath>
    <clipPath
       clipPathUnits="userSpaceOnUse"
       id="clipPath24">
      <path
         d="M 0,500 H 500 V 0 H 0 Z"
         transform="translate(-69.781301,-259.76901)"
         id="path24" />
    </clipPath>
    <clipPath
       clipPathUnits="userSpaceOnUse"
       id="clipPath26">
      <path
         d="M 0,500 H 500 V 0 H 0 Z"
         transform="translate(-184.13871,-386.58891)"
         id="path26" />
    </clipPath>
    <clipPath
       clipPathUnits="userSpaceOnUse"
       id="clipPath28">
      <path
         d="M 0,500 H 500 V 0 H 0 Z"
         transform="translate(-197.416,-367.50591)"
         id="path28" />
    </clipPath>
    <clipPath
       clipPathUnits="userSpaceOnUse"
       id="clipPath30">
      <path
         d="M 0,500 H 500 V 0 H 0 Z"
         transform="translate(-96.850105,-348.83501)"
         id="path30" />
    </clipPath>
    <clipPath
       clipPathUnits="userSpaceOnUse"
       id="clipPath32">
      <path
         d="M 0,500 H 500 V 0 H 0 Z"
         transform="translate(-57.919901,-341.67581)"
         id="path32" />
    </clipPath>
    <clipPath
       clipPathUnits="userSpaceOnUse"
       id="clipPath34">
      <path
         d="M 0,500 H 500 V 0 H 0 Z"
         transform="translate(-60.925802,-331.24021)"
         id="path34" />
    </clipPath>
    <clipPath
       clipPathUnits="userSpaceOnUse"
       id="clipPath36">
      <path
         d="M 0,500 H 500 V 0 H 0 Z"
         transform="translate(-44.233401,-300.34181)"
         id="path36" />
    </clipPath>
    <clipPath
       clipPathUnits="userSpaceOnUse"
       id="clipPath38">
      <path
         d="M 0,500 H 500 V 0 H 0 Z"
         transform="translate(-40.897501,-288.89891)"
         id="path38" />
    </clipPath>
    <clipPath
       clipPathUnits="userSpaceOnUse"
       id="clipPath40">
      <path
         d="M 0,500 H 500 V 0 H 0 Z"
         transform="translate(-198.73731,-283.09331)"
         id="path40" />
    </clipPath>
    <clipPath
       clipPathUnits="userSpaceOnUse"
       id="clipPath42">
      <path
         d="M 0,500 H 500 V 0 H 0 Z"
         transform="translate(-252.5713,-381.05571)"
         id="path42" />
    </clipPath>
    <clipPath
       clipPathUnits="userSpaceOnUse"
       id="clipPath44">
      <path
         d="M 0,500 H 500 V 0 H 0 Z"
         transform="translate(-262.45611,-272.16111)"
         id="path44" />
    </clipPath>
    <clipPath
       clipPathUnits="userSpaceOnUse"
       id="clipPath46">
      <path
         d="M 0,500 H 500 V 0 H 0 Z"
         transform="translate(-286.02541,-361.20261)"
         id="path46" />
    </clipPath>
    <clipPath
       clipPathUnits="userSpaceOnUse"
       id="clipPath48">
      <path
         d="M 0,500 H 500 V 0 H 0 Z"
         transform="translate(-307.62011,-369.99021)"
         id="path48" />
    </clipPath>
    <clipPath
       clipPathUnits="userSpaceOnUse"
       id="clipPath50">
      <path
         d="M 0,500 H 500 V 0 H 0 Z"
         transform="translate(-196.3042,-286.99851)"
         id="path50" />
    </clipPath>
    <clipPath
       clipPathUnits="userSpaceOnUse"
       id="clipPath52">
      <path
         d="M 0,500 H 500 V 0 H 0 Z"
         transform="translate(-308.83691,-364.13181)"
         id="path52" />
    </clipPath>
    <clipPath
       clipPathUnits="userSpaceOnUse"
       id="clipPath54">
      <path
         d="M 0,500 H 500 V 0 H 0 Z"
         transform="translate(-300.62501,-373.56981)"
         id="path54" />
    </clipPath>
    <clipPath
       clipPathUnits="userSpaceOnUse"
       id="clipPath56">
      <path
         d="M 0,500 H 500 V 0 H 0 Z"
         transform="translate(-257.1514,-305.75731)"
         id="path56" />
    </clipPath>
    <clipPath
       clipPathUnits="userSpaceOnUse"
       id="clipPath58">
      <path
         d="M 0,500 H 500 V 0 H 0 Z"
         transform="translate(-250.25391,-295.45611)"
         id="path58" />
    </clipPath>
    <clipPath
       clipPathUnits="userSpaceOnUse"
       id="clipPath60">
      <path
         d="M 0,500 H 500 V 0 H 0 Z"
         transform="translate(-271.70701,-324.65141)"
         id="path60" />
    </clipPath>
    <clipPath
       clipPathUnits="userSpaceOnUse"
       id="clipPath62">
      <path
         d="M 0,500 H 500 V 0 H 0 Z"
         transform="translate(-298.834,-354.45311)"
         id="path62" />
    </clipPath>
    <clipPath
       clipPathUnits="userSpaceOnUse"
       id="clipPath64">
      <path
         d="M 0,500 H 500 V 0 H 0 Z"
         transform="translate(-298.834,-354.45311)"
         id="path64" />
    </clipPath>
    <clipPath
       clipPathUnits="userSpaceOnUse"
       id="clipPath66">
      <path
         d="M 0,500 H 500 V 0 H 0 Z"
         transform="translate(-302.14651,-304.89891)"
         id="path66" />
    </clipPath>
    <clipPath
       clipPathUnits="userSpaceOnUse"
       id="clipPath68">
      <path
         d="M 0,500 H 500 V 0 H 0 Z"
         transform="translate(-397.41701,-357.43121)"
         id="path68" />
    </clipPath>
    <clipPath
       clipPathUnits="userSpaceOnUse"
       id="clipPath70">
      <path
         d="M 0,500 H 500 V 0 H 0 Z"
         transform="translate(-366.62301,-266.8203)"
         id="path70" />
    </clipPath>
    <clipPath
       clipPathUnits="userSpaceOnUse"
       id="clipPath72">
      <path
         d="M 0,500 H 500 V 0 H 0 Z"
         transform="translate(-421.27831,-343.00201)"
         id="path72" />
    </clipPath>
    <clipPath
       clipPathUnits="userSpaceOnUse"
       id="clipPath74">
      <path
         d="M 0,500 H 500 V 0 H 0 Z"
         transform="translate(-407.07421,-337.77051)"
         id="path74" />
    </clipPath>
    <clipPath
       clipPathUnits="userSpaceOnUse"
       id="clipPath76">
      <path
         d="M 0,500 H 500 V 0 H 0 Z"
         transform="translate(-369.36131,-269.7495)"
         id="path76" />
    </clipPath>
    <clipPath
       clipPathUnits="userSpaceOnUse"
       id="clipPath78">
      <path
         d="M 0,500 H 500 V 0 H 0 Z"
         transform="translate(-437.34571,-325.98341)"
         id="path78" />
    </clipPath>
    <clipPath
       clipPathUnits="userSpaceOnUse"
       id="clipPath80">
      <path
         d="M 0,500 H 500 V 0 H 0 Z"
         transform="translate(-382.43951,-272.02731)"
         id="path80" />
    </clipPath>
    <clipPath
       clipPathUnits="userSpaceOnUse"
       id="clipPath82">
      <path
         d="M 0,500 H 500 V 0 H 0 Z"
         transform="translate(-401.49901,-270.4023)"
         id="path82" />
    </clipPath>
    <clipPath
       clipPathUnits="userSpaceOnUse"
       id="clipPath84">
      <path
         d="M 0,500 H 500 V 0 H 0 Z"
         transform="translate(-405.25001,-275.2812)"
         id="path84" />
    </clipPath>
    <clipPath
       clipPathUnits="userSpaceOnUse"
       id="clipPath86">
      <path
         d="M 0,500 H 500 V 0 H 0 Z"
         transform="translate(-424.31051,-265.95461)"
         id="path86" />
    </clipPath>
    <clipPath
       clipPathUnits="userSpaceOnUse"
       id="clipPath88">
      <path
         d="M 0,500 H 500 V 0 H 0 Z"
         transform="translate(-271.2793,-281.082)"
         id="path88" />
    </clipPath>
    <clipPath
       clipPathUnits="userSpaceOnUse"
       id="clipPath90">
      <path
         d="M 0,500 H 500 V 0 H 0 Z"
         transform="translate(-166.8027,-362.17921)"
         id="path90" />
    </clipPath>
    <clipPath
       clipPathUnits="userSpaceOnUse"
       id="clipPath92">
      <path
         d="M 0,500 H 500 V 0 H 0 Z"
         transform="translate(-207.4639,-307.22411)"
         id="path92" />
    </clipPath>
    <clipPath
       clipPathUnits="userSpaceOnUse"
       id="clipPath94">
      <path
         d="M 0,500 H 500 V 0 H 0 Z"
         transform="translate(-202.2271,-338.07371)"
         id="path94" />
    </clipPath>
    <clipPath
       clipPathUnits="userSpaceOnUse"
       id="clipPath96">
      <path
         d="M 0,500 H 500 V 0 H 0 Z"
         transform="translate(-182.39061,-354.23141)"
         id="path96" />
    </clipPath>
    <clipPath
       clipPathUnits="userSpaceOnUse"
       id="clipPath98">
      <path
         d="M 0,500 H 500 V 0 H 0 Z"
         transform="translate(-209.9902,-351.11381)"
         id="path98" />
    </clipPath>
    <clipPath
       clipPathUnits="userSpaceOnUse"
       id="clipPath100">
      <path
         d="M 0,500 H 500 V 0 H 0 Z"
         transform="translate(-257.15821,-345.18751)"
         id="path100" />
    </clipPath>
    <clipPath
       clipPathUnits="userSpaceOnUse"
       id="clipPath102">
      <path
         d="M 0,500 H 500 V 0 H 0 Z"
         transform="translate(-247.29981,-332.70261)"
         id="path102" />
    </clipPath>
    <clipPath
       clipPathUnits="userSpaceOnUse"
       id="clipPath104">
      <path
         d="M 0,500 H 500 V 0 H 0 Z"
         transform="translate(-250.55961,-314.81151)"
         id="path104" />
    </clipPath>
    <clipPath
       clipPathUnits="userSpaceOnUse"
       id="clipPath106">
      <path
         d="M 0,500 H 500 V 0 H 0 Z"
         transform="translate(-98.371105,-264.2163)"
         id="path106" />
    </clipPath>
    <clipPath
       clipPathUnits="userSpaceOnUse"
       id="clipPath108">
      <path
         d="M 0,500 H 500 V 0 H 0 Z"
         transform="translate(-75.863799,-302.29541)"
         id="path108" />
    </clipPath>
    <clipPath
       clipPathUnits="userSpaceOnUse"
       id="clipPath110">
      <path
         d="M 0,500 H 500 V 0 H 0 Z"
         transform="translate(-152.812,-291.55521)"
         id="path110" />
    </clipPath>
    <clipPath
       clipPathUnits="userSpaceOnUse"
       id="clipPath112">
      <path
         d="M 0,500 H 500 V 0 H 0 Z"
         transform="translate(-80.730505,-338.09471)"
         id="path112" />
    </clipPath>
    <clipPath
       clipPathUnits="userSpaceOnUse"
       id="clipPath114">
      <path
         d="M 0,500 H 500 V 0 H 0 Z"
         transform="translate(-98.371105,-326.05321)"
         id="path114" />
    </clipPath>
    <clipPath
       clipPathUnits="userSpaceOnUse"
       id="clipPath116">
      <path
         d="M 0,500 H 500 V 0 H 0 Z"
         transform="translate(-227.32671,-309.45511)"
         id="path116" />
    </clipPath>
    <clipPath
       clipPathUnits="userSpaceOnUse"
       id="clipPath118">
      <path
         d="M 0,500 H 500 V 0 H 0 Z"
         transform="translate(-181.4014,-276.2583)"
         id="path118" />
    </clipPath>
    <clipPath
       clipPathUnits="userSpaceOnUse"
       id="clipPath120">
      <path
         d="M 0,500 H 500 V 0 H 0 Z"
         transform="translate(-241.3096,-358.48931)"
         id="path120" />
    </clipPath>
    <clipPath
       clipPathUnits="userSpaceOnUse"
       id="clipPath122">
      <path
         d="M 0,500 H 500 V 0 H 0 Z"
         transform="translate(-319.48141,-382.03221)"
         id="path122" />
    </clipPath>
    <clipPath
       clipPathUnits="userSpaceOnUse"
       id="clipPath124">
      <path
         d="M 0,500 H 500 V 0 H 0 Z"
         transform="translate(-324.43651,-285.8652)"
         id="path124" />
    </clipPath>
    <clipPath
       clipPathUnits="userSpaceOnUse"
       id="clipPath126">
      <path
         d="M 0,500 H 500 V 0 H 0 Z"
         transform="translate(-348.07131,-260.6367)"
         id="path126" />
    </clipPath>
    <clipPath
       clipPathUnits="userSpaceOnUse"
       id="clipPath128">
      <path
         d="M 0,500 H 500 V 0 H 0 Z"
         transform="translate(-212.42331,-256.73051)"
         id="path128" />
    </clipPath>
    <clipPath
       clipPathUnits="userSpaceOnUse"
       id="clipPath130">
      <path
         d="M 0,500 H 500 V 0 H 0 Z"
         transform="translate(-427.62891,-293.0259)"
         id="path130" />
    </clipPath>
    <clipPath
       clipPathUnits="userSpaceOnUse"
       id="clipPath132">
      <path
         d="M 0,500 H 500 V 0 H 0 Z"
         transform="translate(-436.27251,-274.30571)"
         id="path132" />
    </clipPath>
    <clipPath
       clipPathUnits="userSpaceOnUse"
       id="clipPath134">
      <path
         d="M 0,500 H 500 V 0 H 0 Z"
         transform="translate(-91.9834,-273.3291)"
         id="path134" />
    </clipPath>
    <clipPath
       clipPathUnits="userSpaceOnUse"
       id="clipPath136">
      <path
         d="M 0,500 H 500 V 0 H 0 Z"
         transform="translate(-157.374,-271.70171)"
         id="path136" />
    </clipPath>
    <clipPath
       clipPathUnits="userSpaceOnUse"
       id="clipPath138">
      <path
         d="M 0,500 H 500 V 0 H 0 Z"
         transform="translate(-146.70651,-250.71341)"
         id="path138" />
    </clipPath>
    <clipPath
       clipPathUnits="userSpaceOnUse"
       id="clipPath140">
      <path
         d="M 0,500 H 500 V 0 H 0 Z"
         transform="translate(-109.624,-260.6367)"
         id="path140" />
    </clipPath>
    <clipPath
       clipPathUnits="userSpaceOnUse"
       id="clipPath142">
      <path
         d="M 0,500 H 500 V 0 H 0 Z"
         transform="translate(-58.031701,-286.34621)"
         id="path142" />
    </clipPath>
    <clipPath
       clipPathUnits="userSpaceOnUse"
       id="clipPath144">
      <path
         d="M 0,500 H 500 V 0 H 0 Z"
         transform="translate(-219.11521,-237.20411)"
         id="path144" />
    </clipPath>
    <clipPath
       clipPathUnits="userSpaceOnUse"
       id="clipPath146">
      <path
         d="M 0,500 H 500 V 0 H 0 Z"
         transform="translate(-177.04101,-257.26611)"
         id="path146" />
    </clipPath>
    <clipPath
       clipPathUnits="userSpaceOnUse"
       id="clipPath148">
      <path
         d="M 0,500 H 500 V 0 H 0 Z"
         transform="translate(-67.320802,-293.8296)"
         id="path148" />
    </clipPath>
    <clipPath
       clipPathUnits="userSpaceOnUse"
       id="clipPath150">
      <path
         d="M 0,500 H 500 V 0 H 0 Z"
         transform="translate(-136.2358,-242.085)"
         id="path150" />
    </clipPath>
    <clipPath
       clipPathUnits="userSpaceOnUse"
       id="clipPath152">
      <path
         d="M 0,500 H 500 V 0 H 0 Z"
         transform="translate(-188.7007,-238.17971)"
         id="path152" />
    </clipPath>
    <clipPath
       clipPathUnits="userSpaceOnUse"
       id="clipPath154">
      <path
         d="M 0,500 H 500 V 0 H 0 Z"
         transform="translate(-114.43461,-297.52781)"
         id="path154" />
    </clipPath>
    <clipPath
       clipPathUnits="userSpaceOnUse"
       id="clipPath156">
      <path
         d="M 0,500 H 500 V 0 H 0 Z"
         transform="translate(-306.09961,-237.8535)"
         id="path156" />
    </clipPath>
    <clipPath
       clipPathUnits="userSpaceOnUse"
       id="clipPath158">
      <path
         d="M 0,500 H 500 V 0 H 0 Z"
         transform="translate(-104.75781,-271.37651)"
         id="path158" />
    </clipPath>
    <clipPath
       clipPathUnits="userSpaceOnUse"
       id="clipPath160">
      <path
         d="M 0,500 H 500 V 0 H 0 Z"
         transform="translate(-330.12701,-310.10601)"
         id="path160" />
    </clipPath>
    <clipPath
       clipPathUnits="userSpaceOnUse"
       id="clipPath162">
      <path
         d="M 0,500 H 500 V 0 H 0 Z"
         transform="translate(-324.34771,-270.40041)"
         id="path162" />
    </clipPath>
    <clipPath
       clipPathUnits="userSpaceOnUse"
       id="clipPath164">
      <path
         d="M 0,500 H 500 V 0 H 0 Z"
         transform="translate(-296.79301,-286.63091)"
         id="path164" />
    </clipPath>
    <clipPath
       clipPathUnits="userSpaceOnUse"
       id="clipPath166">
      <path
         d="M 0,500 H 500 V 0 H 0 Z"
         transform="translate(-324.43651,-285.8652)"
         id="path166" />
    </clipPath>
    <clipPath
       clipPathUnits="userSpaceOnUse"
       id="clipPath168">
      <path
         d="M 0,500 H 500 V 0 H 0 Z"
         transform="translate(-264.43261,-255.1035)"
         id="path168" />
    </clipPath>
    <clipPath
       clipPathUnits="userSpaceOnUse"
       id="clipPath170">
      <path
         d="M 0,500 H 500 V 0 H 0 Z"
         transform="translate(-203.08981,-252.3135)"
         id="path170" />
    </clipPath>
    <clipPath
       clipPathUnits="userSpaceOnUse"
       id="clipPath172">
      <path
         d="M 0,500 H 500 V 0 H 0 Z"
         transform="translate(-279.32031,-274.34621)"
         id="path172" />
    </clipPath>
    <clipPath
       clipPathUnits="userSpaceOnUse"
       id="clipPath174">
      <path
         d="M 0,500 H 500 V 0 H 0 Z"
         transform="translate(-297.87301,-260.02691)"
         id="path174" />
    </clipPath>
    <clipPath
       clipPathUnits="userSpaceOnUse"
       id="clipPath176">
      <path
         d="M 0,500 H 500 V 0 H 0 Z"
         transform="translate(-279.32031,-274.34621)"
         id="path176" />
    </clipPath>
    <clipPath
       clipPathUnits="userSpaceOnUse"
       id="clipPath178">
      <path
         d="M 0,500 H 500 V 0 H 0 Z"
         transform="translate(-267.47361,-286.34721)"
         id="path178" />
    </clipPath>
    <clipPath
       clipPathUnits="userSpaceOnUse"
       id="clipPath180">
      <path
         d="M 0,500 H 500 V 0 H 0 Z"
         transform="translate(-384.87301,-276.90921)"
         id="path180" />
    </clipPath>
    <clipPath
       clipPathUnits="userSpaceOnUse"
       id="clipPath182">
      <path
         d="M 0,500 H 500 V 0 H 0 Z"
         transform="translate(-261.60351,-261.03711)"
         id="path182" />
    </clipPath>
    <clipPath
       clipPathUnits="userSpaceOnUse"
       id="clipPath184">
      <path
         d="M 0,500 H 500 V 0 H 0 Z"
         transform="translate(-133.8955,-246.35741)"
         id="path184" />
    </clipPath>
    <clipPath
       clipPathUnits="userSpaceOnUse"
       id="clipPath186">
      <path
         d="M 0,500 H 500 V 0 H 0 Z"
         transform="translate(-109.4175,-261.40581)"
         id="path186" />
    </clipPath>
    <clipPath
       clipPathUnits="userSpaceOnUse"
       id="clipPath188">
      <path
         d="M 0,500 H 500 V 0 H 0 Z"
         transform="translate(-104.90481,-310.70561)"
         id="path188" />
    </clipPath>
    <clipPath
       clipPathUnits="userSpaceOnUse"
       id="clipPath190">
      <path
         d="M 0,500 H 500 V 0 H 0 Z"
         transform="translate(-140.1084,-244.8555)"
         id="path190" />
    </clipPath>
    <clipPath
       clipPathUnits="userSpaceOnUse"
       id="clipPath192">
      <path
         d="M 0,500 H 500 V 0 H 0 Z"
         transform="translate(-110.3662,-215.10941)"
         id="path192" />
    </clipPath>
    <clipPath
       clipPathUnits="userSpaceOnUse"
       id="clipPath194">
      <path
         d="M 0,500 H 500 V 0 H 0 Z"
         transform="translate(-206.02981,-281.9175)"
         id="path194" />
    </clipPath>
    <clipPath
       clipPathUnits="userSpaceOnUse"
       id="clipPath196">
      <path
         d="M 0,500 H 500 V 0 H 0 Z"
         transform="translate(-192.30711,-300.90431)"
         id="path196" />
    </clipPath>
    <clipPath
       clipPathUnits="userSpaceOnUse"
       id="clipPath198">
      <path
         d="M 0,500 H 500 V 0 H 0 Z"
         transform="translate(-171.0688,-265.4067)"
         id="path198" />
    </clipPath>
    <clipPath
       clipPathUnits="userSpaceOnUse"
       id="clipPath200">
      <path
         d="M 0,500 H 500 V 0 H 0 Z"
         transform="translate(-206.02981,-281.9175)"
         id="path200" />
    </clipPath>
    <clipPath
       clipPathUnits="userSpaceOnUse"
       id="clipPath202">
      <path
         d="M 0,500 H 500 V 0 H 0 Z"
         transform="translate(-239.87601,-350.33741)"
         id="path202" />
    </clipPath>
    <clipPath
       clipPathUnits="userSpaceOnUse"
       id="clipPath204">
      <path
         d="M 0,500 H 500 V 0 H 0 Z"
         transform="translate(-228.1543,-361.61131)"
         id="path204" />
    </clipPath>
    <clipPath
       clipPathUnits="userSpaceOnUse"
       id="clipPath206">
      <path
         d="M 0,500 H 500 V 0 H 0 Z"
         transform="translate(-328.89361,-358.30181)"
         id="path206" />
    </clipPath>
    <clipPath
       clipPathUnits="userSpaceOnUse"
       id="clipPath208">
      <path
         d="M 0,500 H 500 V 0 H 0 Z"
         transform="translate(-334.08691,-358.84911)"
         id="path208" />
    </clipPath>
    <clipPath
       clipPathUnits="userSpaceOnUse"
       id="clipPath210">
      <path
         d="M 0,500 H 500 V 0 H 0 Z"
         transform="translate(-392.72271,-260.55861)"
         id="path210" />
    </clipPath>
    <clipPath
       clipPathUnits="userSpaceOnUse"
       id="clipPath212">
      <path
         d="M 0,500 H 500 V 0 H 0 Z"
         transform="translate(-327.48141,-194.2031)"
         id="path212" />
    </clipPath>
    <clipPath
       clipPathUnits="userSpaceOnUse"
       id="clipPath214">
      <path
         d="M 0,500 H 500 V 0 H 0 Z"
         transform="translate(-297.89451,-288.1626)"
         id="path214" />
    </clipPath>
    <clipPath
       clipPathUnits="userSpaceOnUse"
       id="clipPath216">
      <path
         d="M 0,500 H 500 V 0 H 0 Z"
         transform="translate(-358.34961,-286.00241)"
         id="path216" />
    </clipPath>
    <clipPath
       clipPathUnits="userSpaceOnUse"
       id="clipPath218">
      <path
         d="M 0,500 H 500 V 0 H 0 Z"
         transform="translate(-355.85941,-292.70801)"
         id="path218" />
    </clipPath>
    <clipPath
       clipPathUnits="userSpaceOnUse"
       id="clipPath220">
      <path
         d="M 0,500 H 500 V 0 H 0 Z"
         transform="translate(-353.62991,-296.98631)"
         id="path220" />
    </clipPath>
    <clipPath
       clipPathUnits="userSpaceOnUse"
       id="clipPath222">
      <path
         d="M 0,500 H 500 V 0 H 0 Z"
         transform="translate(-327.12301,-181.51271)"
         id="path222" />
    </clipPath>
    <clipPath
       clipPathUnits="userSpaceOnUse"
       id="clipPath224">
      <path
         d="M 0,500 H 500 V 0 H 0 Z"
         transform="translate(-294.1621,-243.81641)"
         id="path224" />
    </clipPath>
    <clipPath
       clipPathUnits="userSpaceOnUse"
       id="clipPath226">
      <path
         d="M 0,500 H 500 V 0 H 0 Z"
         transform="translate(-387.09471,-286.3662)"
         id="path226" />
    </clipPath>
    <clipPath
       clipPathUnits="userSpaceOnUse"
       id="clipPath228">
      <path
         d="M 0,500 H 500 V 0 H 0 Z"
         transform="translate(-353.57231,-263.19041)"
         id="path228" />
    </clipPath>
    <clipPath
       clipPathUnits="userSpaceOnUse"
       id="clipPath230">
      <path
         d="M 0,500 H 500 V 0 H 0 Z"
         transform="translate(-403.89451,-260.5278)"
         id="path230" />
    </clipPath>
    <clipPath
       clipPathUnits="userSpaceOnUse"
       id="clipPath232">
      <path
         d="M 0,500 H 500 V 0 H 0 Z"
         transform="translate(-325.26071,-320.52001)"
         id="path232" />
    </clipPath>
    <clipPath
       clipPathUnits="userSpaceOnUse"
       id="clipPath234">
      <path
         d="M 0,500 H 500 V 0 H 0 Z"
         transform="translate(-337.73051,-312.38431)"
         id="path234" />
    </clipPath>
    <clipPath
       clipPathUnits="userSpaceOnUse"
       id="clipPath236">
      <path
         d="M 0,500 H 500 V 0 H 0 Z"
         transform="translate(-329.82231,-302.29541)"
         id="path236" />
    </clipPath>
    <clipPath
       clipPathUnits="userSpaceOnUse"
       id="clipPath238">
      <path
         d="M 0,500 H 500 V 0 H 0 Z"
         transform="translate(-332.42191,-298.9458)"
         id="path238" />
    </clipPath>
    <clipPath
       clipPathUnits="userSpaceOnUse"
       id="clipPath240">
      <path
         d="M 0,500 H 500 V 0 H 0 Z"
         transform="translate(-250.89841,-236.87891)"
         id="path240" />
    </clipPath>
    <clipPath
       clipPathUnits="userSpaceOnUse"
       id="clipPath242">
      <path
         d="M 0,500 H 500 V 0 H 0 Z"
         transform="translate(-235.69141,-256.08111)"
         id="path242" />
    </clipPath>
  </defs>
  <g
     id="layer-MC0">
    <path
       id="path1"
       d="M 0,0 H 500 V 500 H 0 Z"
       style="fill:#680b0b;fill-opacity:1;fill-rule:nonzero;stroke:none"
       transform="matrix(1.3333333,0,0,-1.3333333,0,666.66667)" />
  </g>
  <g
     id="layer-MC1">
    <path
       id="path2"
       d="m 0,0 c 0,96.113 77.915,174.027 174.027,174.027 96.114,0 174.028,-77.914 174.028,-174.027 0,-96.114 -77.914,-174.027 -174.028,-174.027 C 77.915,-174.027 0,-96.114 0,0"
       style="fill:#891919;fill-opacity:1;fill-rule:nonzero;stroke:none"
       transform="matrix(1.3333333,0,0,-1.3333333,101.6536,329.04173)"
       clip-path="url(#clipPath3)" />
    <path
       id="path4"
       d="M 0,0 C 0,22.7 75.768,41.102 169.231,41.102 262.695,41.102 338.46,22.7 338.46,0 338.46,-22.699 262.695,-41.101 169.231,-41.101 75.768,-41.101 0,-22.699 0,0"
       style="fill:#440b0b;fill-opacity:1;fill-rule:nonzero;stroke:none"
       transform="matrix(1.3333333,0,0,-1.3333333,108.89453,563.00133)"
       clip-path="url(#clipPath5)" />
    <path
       id="path6"
       d="m 0,0 c 0.304,0.976 20.985,32.22 20.985,32.22 0,0 17.337,-17.9 15.208,-19.202 C 34.064,11.716 3.345,-25.712 3.649,-24.41 3.954,-23.108 0,0 0,0"
       style="fill:#d35400;fill-opacity:1;fill-rule:nonzero;stroke:none"
       transform="matrix(1.3333333,0,0,-1.3333333,307.15827,263.60613)"
       clip-path="url(#clipPath7)" />
    <path
       id="path8"
       d="m 0,0 c 0,0 3.954,27.664 2.433,36.776 -1.521,9.114 -4.258,14.646 -6.691,15.623 -2.433,0.976 -6.995,0 -8.516,-1.628 -1.521,-1.627 -8.516,-11.065 -8.516,-12.367 0,-1.302 4.562,-27.664 4.562,-27.664 z"
       style="fill:#af3f08;fill-opacity:1;fill-rule:nonzero;stroke:none"
       transform="matrix(1.3333333,0,0,-1.3333333,204.15493,285.304)"
       clip-path="url(#clipPath9)" />
    <path
       id="path10"
       d="m 0,0 c 1.217,0.325 60.524,18.225 65.999,18.225 5.476,0 5.171,-19.527 5.171,-19.527 L 3.042,-25.712 Z"
       style="fill:#af3f08;fill-opacity:1;fill-rule:nonzero;stroke:none"
       transform="matrix(1.3333333,0,0,-1.3333333,438.95187,269.24733)"
       clip-path="url(#clipPath11)" />
    <path
       id="path12"
       d="m 0,0 c -29.855,-3.533 -114.623,-3.533 -144.478,0 -25.145,2.977 -73.761,15.381 -78.209,43.51 l -19.06,124.427 H 97.269 L 78.209,43.51 C 73.761,15.381 25.145,2.977 0,0"
       style="fill:#bfa088;fill-opacity:1;fill-rule:nonzero;stroke:none"
       transform="matrix(1.3333333,0,0,-1.3333333,429.42973,597.4544)"
       clip-path="url(#clipPath13)" />
    <g
       opacity="0.199997"
       id="g15"
       clip-path="url(#clipPath16)">
      <path
         d="m 0,0 c 34.318,-2.613 131.759,-2.613 166.08,0 22.049,1.679 59.797,7.415 78.732,19.274 l 6.533,42.651 H -87.67 l 6.255,-40.834 C -63.594,7.996 -23.147,1.762 0,0"
         style="fill:#73100e;fill-opacity:1;fill-rule:nonzero;stroke:none"
         transform="matrix(1.3333333,0,0,-1.3333333,223.99413,456.10547)"
         clip-path="url(#clipPath14)"
         id="path15" />
    </g>
    <path
       id="path17"
       d="m 0,0 c -46.726,-2.073 -91.662,-3.129 -138.396,-1.302 -24.437,0.954 -113.622,7.613 -119.007,26.296 l -10.201,49.629 c -3.487,16.958 20.743,31.714 36.97,31.714 H 80.072 c 16.227,0 40.457,-14.756 36.971,-31.714 L 106.841,24.994 C 101.456,6.311 21.419,0.948 0,0"
       style="fill:#e5d4b3;fill-opacity:1;fill-rule:nonzero;stroke:none"
       transform="matrix(1.3333333,0,0,-1.3333333,433.48573,425.06253)"
       clip-path="url(#clipPath18)" />
    <path
       id="path19"
       d="m 0,0 h -310.707 c -16.226,0 -40.456,-14.755 -36.971,-31.714 l 0.184,-0.89 c 17.473,-19.815 100.411,-27.123 124.521,-28.248 50.07,-2.337 98.213,-0.985 148.274,1.664 21.041,1.114 94.869,6.974 111.441,26.358 l 0.229,1.116 C 40.457,-14.755 16.227,0 0,0"
       style="fill:#356272;fill-opacity:1;fill-rule:nonzero;stroke:none"
       transform="matrix(1.3333333,0,0,-1.3333333,540.24867,283.28)"
       clip-path="url(#clipPath20)" />
    <path
       id="path21"
       d="m 0,0 h -310.707 c -16.226,0 -40.456,-14.755 -36.971,-31.714 l 0.184,-0.89 c 17.473,-19.815 100.411,-27.123 124.521,-28.248 50.07,-2.337 98.213,-0.985 148.274,1.664 21.041,1.114 94.869,6.974 111.441,26.358 l 0.229,1.116 C 40.457,-14.755 16.227,0 0,0"
       style="fill:#f9f4de;fill-opacity:1;fill-rule:nonzero;stroke:none"
       transform="matrix(1.3333333,0,0,-1.3333333,540.24867,283.28)"
       clip-path="url(#clipPath22)" />
    <path
       id="path23"
       d="m 0,0 c 0,12.701 80.612,23 180.051,23 99.441,0 180.053,-10.299 180.053,-23 0,-12.702 -80.612,-23 -180.053,-23 C 80.612,-23 0,-12.702 0,0"
       style="fill:#3f1505;fill-opacity:1;fill-rule:nonzero;stroke:none"
       transform="matrix(1.3333333,0,0,-1.3333333,93.041733,320.308)"
       clip-path="url(#clipPath24)" />
    <path
       id="path25"
       d="m 0,0 c 4.406,3.536 13.382,-0.977 16.119,-4.231 2.738,-3.255 35.889,-104.798 35.889,-104.798 l -20.681,-2.603 c 0,0 -33.76,93.081 -33.76,99.264 0,6.183 1.216,11.391 2.433,12.368"
       style="fill:#f4b527;fill-opacity:1;fill-rule:nonzero;stroke:none"
       transform="matrix(1.3333333,0,0,-1.3333333,245.51827,151.2148)"
       clip-path="url(#clipPath26)" />
    <path
       id="path27"
       d="m 0,0 c 3.961,-9.811 7.235,-19.903 10.646,-29.915 4.179,-12.27 8.158,-24.613 11.684,-37.089 2.263,-8.012 4.011,-16.206 6.359,-24.206 l 10.042,1.264 c 0,0 -33.151,101.543 -35.889,104.798 -2.242,2.667 -8.67,6.17 -13.344,5.407 C -6.144,14.018 -2.841,7.035 0,0"
       style="fill:#e8890c;fill-opacity:1;fill-rule:nonzero;stroke:none"
       transform="matrix(1.3333333,0,0,-1.3333333,263.22133,176.6588)"
       clip-path="url(#clipPath28)" />
    <path
       id="path29"
       d="m 0,0 c -4.844,-2.356 -5.475,-7.485 10.036,-25.06 15.512,-17.575 50.488,-52.073 50.488,-52.073 l 14.295,12.367 c 0,0 -57.179,65.743 -60.221,66.719 C 11.557,2.93 3.345,1.628 0,0"
       style="fill:#c46006;fill-opacity:1;fill-rule:nonzero;stroke:none"
       transform="matrix(1.3333333,0,0,-1.3333333,129.13347,201.55333)"
       clip-path="url(#clipPath30)" />
    <path
       id="path31"
       d="M 0,0 C -3.232,-0.577 -10.341,-15.623 -4.258,-20.504 1.825,-25.387 79.077,-96.01 79.077,-96.01 l 18.857,20.177 C 97.934,-75.833 12.773,2.278 0,0"
       style="fill:#af3f08;fill-opacity:1;fill-rule:nonzero;stroke:none"
       transform="matrix(1.3333333,0,0,-1.3333333,77.226533,211.09893)"
       clip-path="url(#clipPath32)" />
    <path
       id="path33"
       d="m 0,0 c 3.487,-4.237 7.013,-8.237 11.127,-11.885 9.938,-8.812 21.093,-15.996 31.787,-23.818 10.355,-7.574 20.251,-15.694 30.338,-23.609 5.298,-4.155 10.963,-7.806 16.519,-11.602 l 5.157,5.517 c 0,0 -85.16,78.11 -97.934,75.833 C -3.946,10.268 -5.213,8.872 -6.389,6.862 -4.05,4.8 -1.988,2.416 0,0"
       style="fill:#c46006;fill-opacity:1;fill-rule:nonzero;stroke:none"
       transform="matrix(1.3333333,0,0,-1.3333333,81.2344,225.01307)"
       clip-path="url(#clipPath34)" />
    <path
       id="path35"
       d="m 0,0 c -2.421,-0.259 -7.604,-9.438 -6.995,-14.32 0.608,-4.881 0.608,-7.811 6.387,-11.065 5.778,-3.255 65.694,-24.409 65.694,-24.409 l 5.475,23.107 C 70.561,-26.687 6.083,0.652 0,0"
       style="fill:#af3f08;fill-opacity:1;fill-rule:nonzero;stroke:none"
       transform="matrix(1.3333333,0,0,-1.3333333,58.977867,266.21093)"
       clip-path="url(#clipPath36)" />
    <path
       id="path37"
       d="m 0,0 c 3.78,-1.78 7.421,-3.858 11.168,-5.709 8.155,-4.029 16.509,-7.438 25.315,-9.759 8.49,-2.238 17.054,-4.066 25.491,-6.516 3.215,-0.934 6.438,-1.874 9.68,-2.725 l 2.242,9.465 c 0,0 -64.477,27.339 -70.56,26.687 C 1.528,11.25 -1.818,6.083 -3.145,1.445 -2.081,0.935 -1.001,0.472 0,0"
       style="fill:#c46006;fill-opacity:1;fill-rule:nonzero;stroke:none"
       transform="matrix(1.3333333,0,0,-1.3333333,54.53,281.46813)"
       clip-path="url(#clipPath38)" />
    <path
       id="path39"
       d="m 0,0 c 0,0.976 -30.718,27.664 -31.63,31.569 -0.913,3.906 5.17,14.646 12.469,13.994 L 17.945,8.787 Z"
       style="fill:#f4b527;fill-opacity:1;fill-rule:nonzero;stroke:none"
       transform="matrix(1.3333333,0,0,-1.3333333,264.98307,289.20893)"
       clip-path="url(#clipPath40)" />
    <path
       id="path41"
       d="M 0,0 C 2.525,1.082 13.381,0.651 13.99,-1.627 14.598,-3.905 28.588,-106.75 28.588,-106.75 l -34.063,-3.905 c 0,0 -4.563,89.175 -4.259,93.08 C -9.429,-13.669 -1.521,-0.651 0,0"
       style="fill:#c46006;fill-opacity:1;fill-rule:nonzero;stroke:none"
       transform="matrix(1.3333333,0,0,-1.3333333,336.76173,158.5924)"
       clip-path="url(#clipPath42)" />
    <path
       id="path43"
       d="m 0,0 18.703,2.144 c 0,0 -13.99,102.844 -14.598,105.123 -0.592,2.22 -10.877,2.68 -13.751,1.707 C -8.392,94.01 -2.502,24.175 0,0"
       style="fill:#e8890c;fill-opacity:1;fill-rule:nonzero;stroke:none"
       transform="matrix(1.3333333,0,0,-1.3333333,349.94147,303.7852)"
       clip-path="url(#clipPath44)" />
    <path
       id="path45"
       d="m 0,0 c 0,0 -11.253,0.326 -15.511,-0.976 -4.258,-1.302 -27.981,-65.743 -27.981,-65.743 0,0 18.25,0.977 19.162,2.604 0.912,1.627 14.598,12.042 14.598,15.297 C -9.732,-45.563 0,0 0,0"
       style="fill:#c46006;fill-opacity:1;fill-rule:nonzero;stroke:none"
       transform="matrix(1.3333333,0,0,-1.3333333,381.3672,185.0632)"
       clip-path="url(#clipPath46)" />
    <path
       id="path47"
       d="m 0,0 c 1.977,1.41 20.986,4.881 24.332,1.302 1.254,-1.343 -52.617,-94.709 -54.441,-94.383 -1.825,0.326 -11.559,8.462 -11.559,8.462 0,0 37.106,81.364 41.668,84.619"
       style="fill:#c46006;fill-opacity:1;fill-rule:nonzero;stroke:none"
       transform="matrix(1.3333333,0,0,-1.3333333,410.16013,173.3464)"
       clip-path="url(#clipPath48)" />
    <path
       id="path49"
       d="m 0,0 c 0,0 -10.645,16.924 -17.944,21.479 -7.3,4.558 -19.161,6.511 -22.507,6.511 -3.345,0 -10.949,-7.16 -10.949,-7.16 l 35.889,-42.31 c 0,0 17.336,16.272 15.511,21.48"
       style="fill:#ffe67d;fill-opacity:1;fill-rule:nonzero;stroke:none"
       transform="matrix(1.3333333,0,0,-1.3333333,261.73893,284.002)"
       clip-path="url(#clipPath50)" />
    <path
       id="path51"
       d="m 0,0 c 0,0 -3.954,5.533 -8.212,9.438 -4.258,3.905 -6.995,7.161 -9.429,5.533 -2.433,-1.628 -10.34,-10.74 -16.423,-24.409 -6.082,-13.669 -18.553,-34.824 -23.722,-40.357 -5.172,-5.533 -18.553,-32.221 -18.553,-32.221 l 30.413,-10.414 z"
       style="fill:#e8890c;fill-opacity:1;fill-rule:nonzero;stroke:none"
       transform="matrix(1.3333333,0,0,-1.3333333,411.78253,181.1576)"
       clip-path="url(#clipPath52)" />
    <path
       id="path53"
       d="M 0,0 C -2.6,2.385 -4.631,4.521 -6.374,5.457 -7.088,4.062 -7.794,2.665 -8.517,1.276 -21.656,-23.965 -36.126,-48.53 -48.223,-74.305 c -3.226,-6.874 -6.308,-13.813 -9.409,-20.743 l 19.918,-6.82 45.926,92.43 c 0,0 -3.954,5.533 -8.212,9.438"
       style="fill:#f4b527;fill-opacity:1;fill-rule:nonzero;stroke:none"
       transform="matrix(1.3333333,0,0,-1.3333333,400.83333,168.5736)"
       clip-path="url(#clipPath54)" />
    <path
       id="path55"
       d="M 0,0 C 1.224,1.131 2.05,0.56 3.245,-0.13 3.239,-1.162 3.325,-2.245 3.456,-3.447 3.777,-6.402 4.467,-5.595 2.203,-7.203 2.04,-7.319 1.875,-7.427 1.71,-7.53 1.479,-6.366 1.026,-5.254 0.289,-4.26 -0.349,-3.4 -1.019,-2.819 -1.713,-2.412 -1.183,-1.485 -0.644,-0.593 0,0 m 14.556,18.894 c 1.058,2.165 2.334,4.328 3.189,6.204 2.396,5.249 -4.945,9.875 -7.353,4.599 C 8.22,24.939 5.044,19.876 3.92,14.675 3.55,12.969 3.555,11.183 4.023,9.503 1.236,9.924 -2.491,9.86 -3.204,9.486 -7.732,7.103 -8.767,0.918 -13.419,-1.797 c -2.987,-1.745 -2.68,-7.712 1.018,-8.328 0.59,-0.1 5.929,-0.22 5.9,-0.162 0.137,-0.261 -3.261,-5.291 -3.583,-6.069 -1.493,-3.62 -1.604,-7.882 1.232,-10.86 2.316,-2.433 6.053,-3.143 9.107,-2.164 1.997,0.64 3.796,2.062 5.225,3.643 1.723,1.905 3.189,5.811 5.776,6.429 1.806,0.433 2.81,1.996 3.006,3.7 1.41,0.983 2.499,2.454 3.141,4.519 0.473,1.528 0.397,3.154 0.503,4.727 0.232,3.404 0.89,6.603 1.365,9.969 0.82,5.786 -0.373,12.051 -4.715,15.287"
       style="fill:#772707;fill-opacity:1;fill-rule:nonzero;stroke:none"
       transform="matrix(1.3333333,0,0,-1.3333333,342.86853,258.99027)"
       clip-path="url(#clipPath56)" />
    <path
       id="path57"
       d="M 0,0 C 0.701,1.862 0.276,3.57 -2.558,4.514 -4.384,5.122 -6.918,5.64 -7.801,7.216 -9.286,4.795 -8.542,0.682 -5.504,0.176 -5.012,0.093 -1.233,-0.004 0,0"
       style="fill:#5b1902;fill-opacity:1;fill-rule:nonzero;stroke:none"
       transform="matrix(1.3333333,0,0,-1.3333333,333.67187,272.7252)"
       clip-path="url(#clipPath58)" />
    <path
       id="path59"
       d="M 0,0 C 1.059,2.165 2.334,4.328 3.189,6.204 4.205,8.429 3.469,10.538 2.103,11.833 1.342,7.307 -1.831,3.096 -0.455,-1.764 0.357,-4.633 1.9,-7.417 2.223,-10.409 c 0.303,-2.82 -0.641,-4.716 -2.617,-6.682 -1.285,-1.277 -2.81,-2.509 -3.752,-4.078 -0.95,-1.581 -1.297,-3.288 -1.888,-5.003 -0.946,-2.743 -2.728,-4.664 -5.166,-6.212 -3.931,-2.493 -8.824,-3.973 -13.318,-2.624 -0.054,-0.099 -0.099,-0.185 -0.122,-0.242 -1.492,-3.62 -1.604,-7.882 1.232,-10.86 2.316,-2.433 6.054,-3.143 9.107,-2.164 1.997,0.64 3.796,2.062 5.226,3.643 1.722,1.905 3.188,5.811 5.775,6.429 1.806,0.433 2.811,1.996 3.006,3.7 1.41,0.983 2.499,2.454 3.142,4.519 0.472,1.528 0.396,3.154 0.503,4.727 0.231,3.404 0.889,6.603 1.365,9.969 C 5.535,-9.501 4.343,-3.236 0,0"
       style="fill:#5b1902;fill-opacity:1;fill-rule:nonzero;stroke:none"
       transform="matrix(1.3333333,0,0,-1.3333333,362.276,233.79813)"
       clip-path="url(#clipPath60)" />
    <path
       id="path61"
       d="m 0,0 c -0.468,0.708 -0.952,1.403 -1.456,2.082 0.213,0.492 0.31,1.007 0.292,1.543 -0.074,1.484 -0.048,2.946 -0.389,4.414 -0.252,1.099 -0.614,2.131 -1.063,3.112 0.874,2.847 -1.119,4.78 -3.444,5.05 -3.469,3.027 -8.356,-2.25 -5.894,-6.356 -1.252,-5.164 -1.019,-10.616 0.566,-15.638 0.731,-2.316 0.549,-5.106 2.369,-6.909 1.819,-1.802 4.464,-2.112 6.665,-1.048 C 2.525,-11.392 2.351,-4.303 0,0"
       style="fill:#772707;fill-opacity:1;fill-rule:nonzero;stroke:none"
       transform="matrix(1.3333333,0,0,-1.3333333,398.44533,194.06253)"
       clip-path="url(#clipPath62)" />
    <path
       id="path63"
       d="m 0,0 c -0.468,0.708 -0.952,1.403 -1.456,2.082 0.213,0.492 0.31,1.007 0.292,1.543 -0.074,1.484 -0.048,2.946 -0.389,4.414 -0.252,1.099 -0.614,2.131 -1.063,3.112 0.699,2.277 -0.438,3.967 -2.111,4.691 0.454,-2.488 1.576,-4.917 1.602,-7.488 0.039,-3.803 -0.515,-7.579 -0.487,-11.382 0.029,-3.994 -0.034,-7.928 -1.755,-11.305 1.018,-0.066 2.057,0.121 3.013,0.583 C 2.525,-11.392 2.351,-4.303 0,0"
       style="fill:#5b1902;fill-opacity:1;fill-rule:nonzero;stroke:none"
       transform="matrix(1.3333333,0,0,-1.3333333,398.44533,194.06253)"
       clip-path="url(#clipPath64)" />
    <path
       id="path65"
       d="M 0,0 C 1.824,0.65 85.159,56.304 89.112,56.955 93.066,57.605 99.757,48.167 98.845,39.38 98.845,35.8 85.159,32.545 54.136,9.438 23.114,-13.669 3.04,-19.854 3.04,-19.854 Z"
       style="fill:#f4b527;fill-opacity:1;fill-rule:nonzero;stroke:none"
       transform="matrix(1.3333333,0,0,-1.3333333,402.862,260.1348)"
       clip-path="url(#clipPath66)" />
    <path
       id="path67"
       d="m 0,0 c -9.281,-8.441 -20.417,-14.312 -30.462,-21.733 -11.087,-8.193 -22.513,-15.929 -34.254,-23.155 -9.548,-5.876 -19.286,-11.436 -29.162,-16.741 l 1.648,-10.757 c 0,0 20.074,6.184 51.095,29.292 31.024,23.107 44.709,26.362 44.709,29.942 C 4.069,-8.388 2.327,-3.436 0,0"
       style="fill:#e8890c;fill-opacity:1;fill-rule:nonzero;stroke:none"
       transform="matrix(1.3333333,0,0,-1.3333333,529.88933,190.09173)"
       clip-path="url(#clipPath68)" />
    <path
       id="path69"
       d="m 0,0 c 0,0 12.774,31.894 15.512,42.31 2.738,10.414 13.687,31.894 15.208,36.451 1.52,4.555 12.468,9.437 13.99,8.462 1.519,-0.977 10.037,-8.138 10.037,-11.717 0,-3.58 -33.457,-85.596 -33.457,-85.596 z"
       style="fill:#c46006;fill-opacity:1;fill-rule:nonzero;stroke:none"
       transform="matrix(1.3333333,0,0,-1.3333333,488.83067,310.90627)"
       clip-path="url(#clipPath70)" />
    <path
       id="path71"
       d="m 0,0 c -0.901,3.735 -8.516,10.122 -9.945,11.041 -1.522,0.976 -12.47,-3.906 -13.991,-8.462 -0.252,-0.756 -0.768,-1.984 -1.459,-3.542 4.212,-1.78 11.191,-4.268 11.191,-4.268 z"
       style="fill:#f4b527;fill-opacity:1;fill-rule:nonzero;stroke:none"
       transform="matrix(1.3333333,0,0,-1.3333333,561.7044,209.33067)"
       clip-path="url(#clipPath72)" />
    <path
       id="path73"
       d="M 0,0 -8.211,7.485 -9.388,8.564 C -9.525,8.313 -9.648,8.06 -9.731,7.811 -11.252,3.254 -22.201,-18.226 -24.939,-28.641 -27.677,-39.056 -40.451,-70.95 -40.451,-70.95 l 11.226,-5.32 z"
       style="fill:#e8890c;fill-opacity:1;fill-rule:nonzero;stroke:none"
       transform="matrix(1.3333333,0,0,-1.3333333,542.7656,216.306)"
       clip-path="url(#clipPath74)" />
    <path
       id="path75"
       d="m 0,0 c 0,0 45.316,47.517 50.791,51.422 5.476,3.906 12.166,7.81 13.687,6.835 1.521,-0.977 7.907,-4.231 8.212,-5.533 0.304,-1.302 0.304,-6.834 -0.608,-9.113 C 71.17,41.333 18.856,-17.901 18.856,-17.901 Z"
       style="fill:#af3f08;fill-opacity:1;fill-rule:nonzero;stroke:none"
       transform="matrix(1.3333333,0,0,-1.3333333,492.48173,307.00067)"
       clip-path="url(#clipPath76)" />
    <path
       id="path77"
       d="m 0,0 c -4.132,-5.513 -7.811,-11.377 -11.632,-17.105 -5.541,-8.308 -11.653,-16.244 -18.296,-23.703 -8.295,-9.316 -17.27,-17.976 -26.122,-26.756 l 6.922,-6.571 c 0,0 52.314,59.234 53.226,61.512 0.912,2.279 0.912,7.811 0.608,9.113 C 4.523,-2.734 2.185,-1.267 0,0"
       style="fill:#c46006;fill-opacity:1;fill-rule:nonzero;stroke:none"
       transform="matrix(1.3333333,0,0,-1.3333333,583.1276,232.02213)"
       clip-path="url(#clipPath78)" />
    <path
       id="path79"
       d="M 0,0 C 0,0 66.303,32.545 69.344,31.244 72.386,29.942 80.9,13.344 79.381,8.787 77.86,4.231 3.953,-23.433 3.953,-23.433 Z"
       style="fill:#c46006;fill-opacity:1;fill-rule:nonzero;stroke:none"
       transform="matrix(1.3333333,0,0,-1.3333333,509.91933,303.9636)"
       clip-path="url(#clipPath80)" />
    <path
       id="path81"
       d="m 0,0 c 11.042,5.323 22.213,10.368 33.322,15.548 5.571,2.597 11.127,5.219 16.639,7.937 1.792,0.884 3.564,1.803 5.338,2.722 -1.894,3.435 -3.853,6.165 -5.015,6.662 C 47.243,34.17 -19.06,1.625 -19.06,1.625 l 1.677,-9.936 C -11.571,-5.576 -5.784,-2.788 0,0"
       style="fill:#af3f08;fill-opacity:1;fill-rule:nonzero;stroke:none"
       transform="matrix(1.3333333,0,0,-1.3333333,535.332,306.13027)"
       clip-path="url(#clipPath82)" />
    <path
       id="path83"
       d="m 0,0 c 0,0 49.575,-4.229 51.097,-6.508 1.519,-2.279 3.344,-6.835 3.344,-10.089 0,-3.257 -6.691,-12.694 -10.949,-12.694 -4.257,0 -54.441,16.925 -54.441,16.925 z"
       style="fill:#f4b527;fill-opacity:1;fill-rule:nonzero;stroke:none"
       transform="matrix(1.3333333,0,0,-1.3333333,540.33333,299.62507)"
       clip-path="url(#clipPath84)" />
    <path
       id="path85"
       d="m 0,0 c -5.986,1.68 -12.016,3.217 -18.103,4.493 -1.485,0.311 -2.979,0.59 -4.475,0.861 L -30.01,-3.04 c 0,0 50.185,-16.924 54.442,-16.924 3.803,0 9.544,7.526 10.727,11.455 C 23.105,-7.185 11.624,-3.263 0,0"
       style="fill:#e8890c;fill-opacity:1;fill-rule:nonzero;stroke:none"
       transform="matrix(1.3333333,0,0,-1.3333333,565.74733,312.06053)"
       clip-path="url(#clipPath86)" />
    <path
       id="path87"
       d="M 0,0 44.666,90.985 C 40.575,90.346 37.122,89.466 36.341,88.908 31.779,85.653 -5.327,4.289 -5.327,4.289 -5.327,4.289 -2.75,2.137 0,0"
       style="fill:#e8890c;fill-opacity:1;fill-rule:nonzero;stroke:none"
       transform="matrix(1.3333333,0,0,-1.3333333,361.70573,291.89067)"
       clip-path="url(#clipPath88)" />
    <path
       id="path89"
       d="m 0,0 c -1.825,-2.278 -2.129,-18.551 -0.608,-21.805 1.52,-3.255 63.261,-91.454 64.174,-90.803 0.912,0.65 31.934,15.947 31.934,15.947 0,0 -52.616,68.021 -63.869,78.11 C 20.377,-8.462 11.253,0.977 8.82,1.627 6.387,2.279 0,0 0,0"
       style="fill:#e8890c;fill-opacity:1;fill-rule:nonzero;stroke:none"
       transform="matrix(1.3333333,0,0,-1.3333333,222.4036,183.76107)"
       clip-path="url(#clipPath90)" />
    <path
       id="path91"
       d="m 0,0 c -7.247,11.03 -15.531,21.396 -23.611,31.821 -5.809,7.493 -10.919,15.606 -17.367,22.566 -1.539,-3.647 -1.719,-18.181 -0.292,-21.237 1.521,-3.255 63.262,-91.454 64.175,-90.803 0.299,0.213 3.841,2.004 8.458,4.31 C 18.852,-36.876 11.356,-17.286 0,0"
       style="fill:#c46006;fill-opacity:1;fill-rule:nonzero;stroke:none"
       transform="matrix(1.3333333,0,0,-1.3333333,276.61853,257.03453)"
       clip-path="url(#clipPath92)" />
    <path
       id="path93"
       d="m 0,0 c -6.542,9.034 -16.469,18.645 -26.961,22.131 -2.696,4.616 -9.623,0.138 -7.148,-4.934 2.945,-6.034 7.52,-7.818 12.951,-10.667 5.903,-3.095 10.541,-8.059 15.136,-12.975 C -2.024,-10.718 3.255,-4.497 0,0"
       style="fill:#772707;fill-opacity:1;fill-rule:nonzero;stroke:none"
       transform="matrix(1.3333333,0,0,-1.3333333,269.63613,215.90173)"
       clip-path="url(#clipPath94)" />
    <path
       id="path95"
       d="M 0,0 C -2.567,1.451 -6.097,3.646 -9.337,4.109 -9.201,2.675 -3.41,-0.5 -2.632,-0.958 1.059,-3.129 4.385,-5.738 8.234,-7.655 8.364,-4.489 2.042,-1.154 0,0"
       style="fill:#a03712;fill-opacity:1;fill-rule:nonzero;stroke:none"
       transform="matrix(1.3333333,0,0,-1.3333333,243.18747,194.35813)"
       clip-path="url(#clipPath96)" />
    <path
       id="path97"
       d="m 0,0 c 1.484,1.985 13.079,2.278 14.904,-0.977 1.824,-3.254 27.677,-76.482 27.677,-76.482 L 19.77,-82.341 -2.128,-28.64 c 0,0 0.912,27.013 2.128,28.64"
       style="fill:#c46006;fill-opacity:1;fill-rule:nonzero;stroke:none"
       transform="matrix(1.3333333,0,0,-1.3333333,279.98693,198.51493)"
       clip-path="url(#clipPath98)" />
    <path
       id="path99"
       d="m 0,0 c -6.297,-0.556 -10.062,-5.068 -11.343,-11.59 -0.695,-3.532 -0.237,-7.247 -0.949,-10.743 -0.005,-0.034 -0.013,-0.069 -0.021,-0.101 -1.131,-1.054 -1.561,-2.439 -1.47,-3.788 -0.092,-0.105 -0.186,-0.209 -0.288,-0.297 -0.783,0.119 -1.59,0.037 -2.316,-0.248 -0.091,0.037 -0.179,0.063 -0.276,0.111 -0.864,0.412 -1.606,2.152 -2.55,2.708 -4.627,2.731 -8.73,-2.114 -10.393,-6.303 -1.295,-3.263 -0.613,-5.98 -0.403,-9.339 0.326,-5.158 -2.736,-5.399 -5.626,-8.532 -2.389,-2.59 -1.072,-6.458 1.879,-7.615 5.853,-2.294 14.57,1.845 15.873,8.681 0.171,0.891 -0.339,4.19 -0.112,4.604 0.337,0.618 3.276,1.614 3.948,2.199 1.546,1.343 2.547,3.036 3.115,4.913 0.812,0.453 1.637,1.038 2.478,1.808 1.848,1.687 2.994,3.889 3.722,6.282 1.448,1.688 2.547,3.644 3.394,5.895 0.912,0.486 1.688,1.331 2.103,2.625 1.076,3.348 1.56,6.906 1.399,10.438 C 5.287,-5.969 4.604,0.406 0,0"
       style="fill:#772707;fill-opacity:1;fill-rule:nonzero;stroke:none"
       transform="matrix(1.3333333,0,0,-1.3333333,342.8776,206.41667)"
       clip-path="url(#clipPath100)" />
    <path
       id="path101"
       d="m 0,0 c -0.316,-1.94 -0.516,-3.967 -0.429,-5.935 0.017,-0.403 0.02,-2.707 0.956,-2.325 0.526,0.215 0.847,0.896 1.062,1.385 1.204,2.741 1.198,5.833 2.296,8.57 C 4.33,2.803 7.52,7.909 7.049,9.724 3.687,8.319 0.556,3.411 0,0"
       style="fill:#a03712;fill-opacity:1;fill-rule:nonzero;stroke:none"
       transform="matrix(1.3333333,0,0,-1.3333333,329.73307,223.0632)"
       clip-path="url(#clipPath102)" />
    <path
       id="path103"
       d="m 0,0 c -2.375,-1.847 -4.69,-3.979 -7.419,-5.282 -1.433,-0.684 -3.263,-1.344 -4.316,-2.585 -0.786,-0.925 -1.437,-1.955 -2.173,-2.92 -0.7,-0.918 -1.885,-2.103 -3.196,-1.72 -2.723,0.796 -1.829,5.375 -1.445,7.37 0.834,4.336 3.717,7.892 4.581,12.141 -4.06,1.184 -7.541,-3.105 -9.039,-6.879 -1.296,-3.263 -0.614,-5.98 -0.403,-9.339 0.326,-5.158 -2.736,-5.399 -5.627,-8.532 -2.389,-2.59 -1.071,-6.458 1.879,-7.615 5.853,-2.294 14.571,1.845 15.873,8.681 0.171,0.891 -0.338,4.19 -0.111,4.604 0.337,0.618 3.275,1.614 3.948,2.199 1.546,1.343 2.547,3.036 3.115,4.913 0.812,0.453 1.636,1.038 2.478,1.808 1.224,1.118 2.135,2.466 2.827,3.942 C 0.647,0.524 0.328,0.256 0,0"
       style="fill:#5b1902;fill-opacity:1;fill-rule:nonzero;stroke:none"
       transform="matrix(1.3333333,0,0,-1.3333333,334.07947,246.918)"
       clip-path="url(#clipPath104)" />
    <path
       id="path105"
       d="m 0,0 c 0,0 -14.599,31.244 -22.507,38.079 -7.908,6.835 -10.341,11.065 -11.861,14.971 -1.521,3.906 -4.866,6.184 -9.125,4.556 -4.258,-1.627 -12.166,-4.556 -12.166,-7.485 0,-2.929 4.867,-10.09 6.083,-13.344 1.217,-3.255 20.682,-32.871 25.244,-40.032 4.562,-7.161 10.341,-9.113 10.341,-9.113 z"
       style="fill:#e8890c;fill-opacity:1;fill-rule:nonzero;stroke:none"
       transform="matrix(1.3333333,0,0,-1.3333333,131.16147,314.37827)"
       clip-path="url(#clipPath106)" />
    <path
       id="path107"
       d="m 0,0 c -7.907,6.834 -10.34,11.065 -11.861,14.971 -1.521,3.905 -4.866,6.184 -9.124,4.556 -0.704,-0.269 -1.512,-0.576 -2.362,-0.91 l 33.08,-59.299 c 0,0 -3.297,-2.744 -7.241,-5.838 3.234,-2.978 6.025,-3.927 6.025,-3.927 l 13.99,12.368 C 22.507,-38.079 7.908,-6.835 0,0"
       style="fill:#f4b527;fill-opacity:1;fill-rule:nonzero;stroke:none"
       transform="matrix(1.3333333,0,0,-1.3333333,101.15173,263.60613)"
       clip-path="url(#clipPath108)" />
    <path
       id="path109"
       d="m 0,0 c 0,0 24.635,0.976 26.765,2.278 2.129,1.302 19.16,13.344 19.16,13.344 L 63.261,7.811 c 0,0 -15.207,-31.244 -16.119,-31.57 -0.913,-0.325 -21.29,-9.438 -21.594,-7.486 C 25.244,-29.292 0,0 0,0"
       style="fill:#f9bd67;fill-opacity:1;fill-rule:nonzero;stroke:none"
       transform="matrix(1.3333333,0,0,-1.3333333,203.74933,277.9264)"
       clip-path="url(#clipPath110)" />
    <path
       id="path111"
       d="m 0,0 c -3.188,-1.461 -8.212,-7.485 -7.604,-14.971 0.608,-7.485 3.954,-16.924 7.604,-24.083 3.65,-7.161 29.501,-40.031 30.415,-40.031 0.912,0 22.201,13.994 22.201,13.994 0,0 -30.109,48.819 -34.975,53.049 C 12.774,-7.811 2.129,0.977 0,0"
       style="fill:#e8890c;fill-opacity:1;fill-rule:nonzero;stroke:none"
       transform="matrix(1.3333333,0,0,-1.3333333,107.64067,215.87373)"
       clip-path="url(#clipPath112)" />
    <path
       id="path113"
       d="m 0,0 c -4.805,4.176 -15.227,12.777 -17.54,12.056 5.298,-9.831 18.48,-35.386 37.917,-60.549 2.851,-3.69 5.521,-6.594 8.018,-8.852 3.691,2.397 6.581,4.296 6.581,4.296 0,0 -30.11,48.818 -34.976,53.049"
       style="fill:#f4b527;fill-opacity:1;fill-rule:nonzero;stroke:none"
       transform="matrix(1.3333333,0,0,-1.3333333,131.16147,231.92907)"
       clip-path="url(#clipPath114)" />
    <path
       id="path115"
       d="m 0,0 c 0,0 -29.502,27.013 -37.713,27.013 -8.212,0 -6.083,-19.202 -4.867,-25.711 1.217,-6.51 28.59,-25.712 28.59,-25.712 z"
       style="fill:#fff2bb;fill-opacity:1;fill-rule:nonzero;stroke:none"
       transform="matrix(1.3333333,0,0,-1.3333333,303.10227,254.05987)"
       clip-path="url(#clipPath116)" />
    <path
       id="path117"
       d="M 0,0 C 0,0 23.723,48.167 31.327,61.512 38.93,74.855 48.054,88.2 52.921,85.921 57.787,83.643 66.911,78.76 66.911,75.506 66.911,72.252 44.405,30.593 40.755,21.806 37.105,13.018 22.81,-20.831 22.81,-20.831 l -22.506,7.813 z"
       style="fill:#f4b527;fill-opacity:1;fill-rule:nonzero;stroke:none"
       transform="matrix(1.3333333,0,0,-1.3333333,241.86853,298.32227)"
       clip-path="url(#clipPath118)" />
    <path
       id="path119"
       d="m 0,0 c -0.185,-0.464 -0.371,-0.927 -0.558,-1.391 -10.596,-26.234 -23.077,-51.448 -36.591,-76.293 -3.862,-7.101 -7.751,-14.203 -11.555,-21.349 l 11.606,-4.029 c 0,0 14.295,33.849 17.945,42.637 3.65,8.787 26.155,50.446 26.155,53.7 C 7.002,-4.766 3.694,-2.216 0,0"
       style="fill:#e8890c;fill-opacity:1;fill-rule:nonzero;stroke:none"
       transform="matrix(1.3333333,0,0,-1.3333333,321.74613,188.68093)"
       clip-path="url(#clipPath120)" />
    <path
       id="path121"
       d="m 0,0 c 2.129,2.278 9.429,7.811 11.253,5.858 1.825,-1.953 11.254,-7.486 11.254,-10.739 0,-3.255 -2.737,-22.457 -2.737,-32.546 0,-10.09 -1.826,-57.932 -1.826,-57.932 l -26.155,-1.628 c 0,0 6.69,69.973 7.298,78.111 C -0.304,-10.74 0,0 0,0"
       style="fill:#e8890c;fill-opacity:1;fill-rule:nonzero;stroke:none"
       transform="matrix(1.3333333,0,0,-1.3333333,425.9752,157.2904)"
       clip-path="url(#clipPath122)" />
    <path
       id="path123"
       d="m 0,0 12.989,0.808 c 0,0 1.825,47.842 1.825,57.932 0,10.089 2.738,29.291 2.738,32.546 0,3.254 -9.429,8.787 -11.254,10.74 -0.048,0.051 -0.114,0.077 -0.169,0.116 C 6.697,94.477 7.545,80.331 6.906,70.782 6.176,59.83 1.737,16.715 0,0"
       style="fill:#f4b527;fill-opacity:1;fill-rule:nonzero;stroke:none"
       transform="matrix(1.3333333,0,0,-1.3333333,432.582,285.51307)"
       clip-path="url(#clipPath124)" />
    <path
       id="path125"
       d="m 0,0 c 1.521,0.325 33.76,2.278 43.188,11.391 9.429,9.113 16.727,14.971 19.465,16.273 2.738,1.302 15.206,7.16 18.553,3.905 3.345,-3.255 6.995,-14.971 6.995,-17.9 0,-2.929 -20.681,-23.108 -37.714,-27.339 -17.032,-4.23 -59.611,-6.509 -59.611,-6.509 z"
       style="fill:#e8890c;fill-opacity:1;fill-rule:nonzero;stroke:none"
       transform="matrix(1.3333333,0,0,-1.3333333,464.09507,319.15107)"
       clip-path="url(#clipPath126)" />
    <path
       id="path127"
       d="M 0,0 C 0,0 -5.779,19.853 -19.769,23.433 -33.759,27.014 -40.45,19.528 -38.93,16.599 -37.409,13.67 -17.944,-6.509 -16.728,-6.509 -15.511,-6.509 -1.825,-3.254 0,0"
       style="fill:#fff2bb;fill-opacity:1;fill-rule:nonzero;stroke:none"
       transform="matrix(1.3333333,0,0,-1.3333333,283.23107,324.35933)"
       clip-path="url(#clipPath128)" />
    <path
       id="path129"
       d="m 0,0 c -3.3,-7.948 -8.44,-19.368 -11.735,-23.927 -3.647,-5.052 -26.51,-18.033 -40.412,-25.704 8.849,0.966 17.388,2.16 23.076,3.572 17.032,4.231 37.714,24.41 37.714,27.339 0,2.929 -3.652,14.645 -6.997,17.9 C 1.23,-0.413 0.668,-0.148 0,0"
       style="fill:#c46006;fill-opacity:1;fill-rule:nonzero;stroke:none"
       transform="matrix(1.3333333,0,0,-1.3333333,570.17187,275.96547)"
       clip-path="url(#clipPath130)" />
    <path
       id="path131"
       d="m 0,0 c 0,2.929 -3.65,14.646 -6.995,17.9 -3.347,3.255 -15.816,-2.603 -18.553,-3.905 -0.401,-0.191 -0.911,-0.491 -1.5,-0.873 1.645,-6.481 4.587,-16.991 6.67,-18.329 2.066,-1.327 12.411,0.952 18.836,2.548 C -0.556,-1.414 0,-0.477 0,0"
       style="fill:#f4b527;fill-opacity:1;fill-rule:nonzero;stroke:none"
       transform="matrix(1.3333333,0,0,-1.3333333,581.69667,300.92573)"
       clip-path="url(#clipPath132)" />
    <path
       id="path133"
       d="m 0,0 c -9.124,5.208 -12.166,10.415 -15.207,13.344 -3.042,2.929 -8.211,7.16 -9.428,7.16 -0.971,0 -7.739,-2.278 -10.747,-4.025 4.071,-3.697 12.876,-9.97 12.876,-9.97 0,0 30.923,-28.747 43.941,-34.491 1.653,2.36 -3.794,15.29 -3.794,15.29 0,0 -8.516,7.485 -17.641,12.692"
       style="fill:#d35400;fill-opacity:1;fill-rule:nonzero;stroke:none"
       transform="matrix(1.3333333,0,0,-1.3333333,122.64453,302.22787)"
       clip-path="url(#clipPath134)" />
    <path
       id="path135"
       d="m 0,0 c 0,0 -29.198,30.268 -34.064,34.173 -4.866,3.906 -15.815,2.603 -17.64,0.976 -1.825,-1.627 -6.692,-17.248 -5.779,-20.178 0.913,-2.929 17.944,-28.314 24.636,-35.15 6.691,-6.833 11.709,-9.438 11.709,-9.438 0,0 19.65,-4.059 23.571,0.652 C 6.953,-23.536 0,0 0,0"
       style="fill:#c46006;fill-opacity:1;fill-rule:nonzero;stroke:none"
       transform="matrix(1.3333333,0,0,-1.3333333,209.832,304.39773)"
       clip-path="url(#clipPath136)" />
    <path
       id="path137"
       d="m 0,0 c -5.435,6.202 -11.54,11.757 -16.804,18.136 -5.262,6.377 -10.404,12.91 -14.995,19.792 -2.188,3.28 -4.118,6.696 -6.193,10.043 -1.379,2.225 -2.833,4.443 -3.915,6.832 -2.148,-4.23 -5.7,-16.303 -4.908,-18.844 0.913,-2.928 17.944,-28.314 24.635,-35.149 6.691,-6.834 11.709,-9.438 11.709,-9.438 0,0 12.458,-2.571 19.513,-1.24 C 5.733,-6.915 2.95,-3.365 0,0"
       style="fill:#af3f08;fill-opacity:1;fill-rule:nonzero;stroke:none"
       transform="matrix(1.3333333,0,0,-1.3333333,195.60867,332.38213)"
       clip-path="url(#clipPath138)" />
    <path
       id="path139"
       d="m 0,0 c 0,0 -8.516,7.485 -17.641,12.692 -9.124,5.208 -12.165,10.415 -15.207,13.344 -3.041,2.93 -8.211,7.161 -9.428,7.161 -1.217,0 -11.557,-3.581 -12.165,-5.208 -0.609,-1.627 -2.738,-13.344 -2.13,-14.646 0.609,-1.301 15.816,-15.947 24.94,-20.828 9.125,-4.883 30.11,-7.161 34.368,-8.138 C 6.995,-16.599 0,0 0,0"
       style="fill:#c46006;fill-opacity:1;fill-rule:nonzero;stroke:none"
       transform="matrix(1.3333333,0,0,-1.3333333,146.16533,319.15107)"
       clip-path="url(#clipPath140)" />
    <path
       id="path141"
       d="m 0,0 c 2.633,-2.395 5.292,-4.385 8.521,-5.913 2.962,-1.402 6.056,-2.718 8.456,-5.022 2.562,-2.459 4.955,-5.096 7.486,-7.588 5.417,-5.334 11.174,-10.664 17.924,-14.273 4.344,-2.322 8.816,-4.458 13.311,-6.536 -0.154,4.245 -4.106,13.623 -4.106,13.623 0,0 -8.516,7.485 -17.64,12.692 C 24.828,-7.81 21.786,-2.602 18.745,0.327 15.703,3.256 10.533,7.487 9.316,7.487 8.131,7.487 -1.713,4.089 -2.779,2.409 -1.82,1.65 -0.907,0.825 0,0"
       style="fill:#e8890c;fill-opacity:1;fill-rule:nonzero;stroke:none"
       transform="matrix(1.3333333,0,0,-1.3333333,77.3756,284.87173)"
       clip-path="url(#clipPath142)" />
    <path
       id="path143"
       d="m 0,0 c 0,0 -80.902,90.802 -88.81,96.986 -7.907,6.184 -13.99,7.811 -15.207,3.58 -1.217,-4.231 0,-15.296 0.609,-19.202 0.608,-3.906 6.082,-18.877 11.557,-24.409 C -86.376,51.422 -39.539,1.627 -37.41,0.976 -35.281,0.324 0,0 0,0"
       style="fill:#f4b527;fill-opacity:1;fill-rule:nonzero;stroke:none"
       transform="matrix(1.3333333,0,0,-1.3333333,292.1536,350.39453)"
       clip-path="url(#clipPath144)" />
    <path
       id="path145"
       d="m 0,0 c -3.362,4.571 -6.652,9.212 -10.306,13.558 -4.041,4.807 -8.233,9.488 -12.224,14.337 -8.024,9.747 -14.772,20.401 -22.507,30.361 -5.875,7.567 -11.775,15.302 -14.973,24.387 -0.943,-0.325 -1.611,-1.022 -1.932,-2.139 -1.218,-4.231 0,-15.296 0.608,-19.202 0.608,-3.906 6.082,-18.877 11.557,-24.409 5.475,-5.533 52.313,-55.328 54.442,-55.979 0.819,-0.251 6.557,-0.454 13.302,-0.608 C 10.898,-14.231 5.298,-7.203 0,0"
       style="fill:#e8890c;fill-opacity:1;fill-rule:nonzero;stroke:none"
       transform="matrix(1.3333333,0,0,-1.3333333,236.05467,323.6452)"
       clip-path="url(#clipPath146)" />
    <path
       id="path147"
       d="m 0,0 c -1.304,-0.036 -11.533,-3.585 -12.139,-5.205 -0.561,-1.5 -2.411,-11.57 -2.218,-14.146 5.7,0.097 15.418,5.359 16.513,5.359 C 2.957,-13.992 1.257,-5.687 0,0"
       style="fill:#f4b527;fill-opacity:1;fill-rule:nonzero;stroke:none"
       transform="matrix(1.3333333,0,0,-1.3333333,89.761067,274.89387)"
       clip-path="url(#clipPath148)" />
    <path
       id="path149"
       d="m 0,0 c 0,0 -14.447,20.178 -22.05,27.989 -7.603,7.812 -10.949,17.251 -14.295,16.599 -3.345,-0.651 -10.644,-6.835 -9.124,-14.646 1.521,-7.811 2.738,-22.782 3.65,-23.758 C -40.907,5.208 -11.861,0.814 0,0"
       style="fill:#c46006;fill-opacity:1;fill-rule:nonzero;stroke:none"
       transform="matrix(1.3333333,0,0,-1.3333333,181.64773,343.88667)"
       clip-path="url(#clipPath150)" />
    <path
       id="path151"
       d="m 0,0 c 0,0 -25.852,31.57 -35.889,42.961 -10.036,11.391 -21.898,21.805 -26.156,21.479 -4.258,-0.324 -13.382,-5.207 -14.295,-6.834 -0.912,-1.627 -3.041,-6.509 -2.432,-8.787 0.607,-2.278 17.64,-22.782 22.81,-30.268 5.17,-7.486 12.47,-15.296 14.294,-15.621 C -39.842,2.603 -6.083,-0.976 0,0"
       style="fill:#f4b527;fill-opacity:1;fill-rule:nonzero;stroke:none"
       transform="matrix(1.3333333,0,0,-1.3333333,251.60093,349.09373)"
       clip-path="url(#clipPath152)" />
    <path
       id="path153"
       d="m 0,0 c -1.077,-0.705 -1.842,-1.329 -2.074,-1.741 -0.912,-1.628 -3.041,-6.51 -2.432,-8.787 0.608,-2.279 17.64,-22.783 22.81,-30.269 5.171,-7.485 12.47,-15.295 14.294,-15.621 0.829,-0.149 8.244,-0.968 16.659,-1.726 C 35.314,-41.396 8.528,-9.988 0,0"
       style="fill:#e8890c;fill-opacity:1;fill-rule:nonzero;stroke:none"
       transform="matrix(1.3333333,0,0,-1.3333333,152.57947,269.96293)"
       clip-path="url(#clipPath154)" />
    <path
       id="path155"
       d="M 0,0 C 0,0 24.331,24.084 28.894,26.363 33.455,28.641 58.699,21.156 66.91,18.877 75.123,16.6 76.644,12.694 75.731,8.137 74.819,3.581 40.146,1.303 28.285,0.978 16.423,0.651 0,0 0,0"
       style="fill:#d35400;fill-opacity:1;fill-rule:nonzero;stroke:none"
       transform="matrix(1.3333333,0,0,-1.3333333,408.1328,349.52867)"
       clip-path="url(#clipPath156)" />
    <path
       id="path157"
       d="m 0,0 c -4.056,5.849 -6.264,10.921 -7.411,14.16 -3.505,-2.223 -7.778,-7.354 -6.58,-13.509 1.521,-7.811 2.738,-22.782 3.65,-23.759 0.627,-0.669 15.132,-3.566 27.372,-4.882 C 11.681,-18.701 4.033,-5.816 0,0"
       style="fill:#ffe67d;fill-opacity:1;fill-rule:nonzero;stroke:none"
       transform="matrix(1.3333333,0,0,-1.3333333,139.67707,304.83133)"
       clip-path="url(#clipPath158)" />
    <path
       id="path159"
       d="m 0,0 c 0,0 23.419,3.906 28.285,0.651 4.866,-3.255 8.819,-9.113 8.819,-21.806 0,-12.693 -21.897,-6.835 -31.933,-6.835 -10.037,0 -21.595,3.906 -21.595,3.906 z"
       style="fill:#fff2bb;fill-opacity:1;fill-rule:nonzero;stroke:none"
       transform="matrix(1.3333333,0,0,-1.3333333,440.16933,253.192)"
       clip-path="url(#clipPath160)" />
    <path
       id="path161"
       d="m 0,0 c 0,0 -23.419,35.475 -27.98,38.729 -4.563,3.255 -11.558,3.58 -15.208,1.627 -3.649,-1.953 -11.557,-12.692 -10.645,-16.598 0.912,-3.905 17.641,-28.315 17.641,-28.315 0,0 32.239,1.628 36.192,4.557"
       style="fill:#c46006;fill-opacity:1;fill-rule:nonzero;stroke:none"
       transform="matrix(1.3333333,0,0,-1.3333333,432.4636,306.1328)"
       clip-path="url(#clipPath162)" />
    <path
       id="path163"
       d="m 0,0 c 2.58,-5.897 5.284,-11.558 8.491,-17.149 0.438,-0.762 0.874,-1.524 1.31,-2.288 7.976,0.767 15.918,1.846 17.754,3.207 0,0 -23.419,35.474 -27.981,38.729 -4.101,2.926 -10.162,3.478 -13.998,2.142 C -9.284,16.61 -3.827,8.747 0,0"
       style="fill:#af3f08;fill-opacity:1;fill-rule:nonzero;stroke:none"
       transform="matrix(1.3333333,0,0,-1.3333333,395.724,284.49213)"
       clip-path="url(#clipPath164)" />
    <path
       id="path165"
       d="M 0,0 C 0,0 20.897,12.2 26.979,12.525 33.063,12.851 34.888,7.318 37.017,-1.47 39.146,-10.257 11.773,-9.932 8.428,-9.932 5.082,-9.932 -4.778,-4.388 0,0"
       style="fill:#9e1e18;fill-opacity:1;fill-rule:nonzero;stroke:none"
       transform="matrix(1.3333333,0,0,-1.3333333,432.582,285.51307)"
       clip-path="url(#clipPath166)" />
    <path
       id="path167"
       d="m 0,0 c 0,0 -9.733,20.829 -12.47,24.735 -2.738,3.906 -12.166,9.438 -16.728,11.066 -4.562,1.627 -16.424,-0.652 -18.249,-2.279 -1.824,-1.627 -19.465,-25.71 -18.857,-29.941 0.609,-4.231 18.249,-17.902 23.419,-19.853 5.171,-1.953 32.544,-3.255 36.802,-1.303 C -1.825,-15.622 0,0 0,0"
       style="fill:#f9bd67;fill-opacity:1;fill-rule:nonzero;stroke:none"
       transform="matrix(1.3333333,0,0,-1.3333333,352.5768,326.52867)"
       clip-path="url(#clipPath168)" />
    <path
       id="path169"
       d="m 0,0 c 6.435,-0.003 25.969,2.69 29.407,6.371 3.953,4.231 14.295,10.089 16.423,13.018 1.326,1.824 1.355,6.803 0.967,10.38 -3.915,3.534 -10.915,7.488 -14.653,8.822 C 27.583,40.218 15.721,37.94 13.896,36.313 12.07,34.686 -5.569,10.602 -4.961,6.371 -4.764,4.998 -2.771,2.632 0,0"
       style="fill:#ffe67d;fill-opacity:1;fill-rule:nonzero;stroke:none"
       transform="matrix(1.3333333,0,0,-1.3333333,270.7864,330.24867)"
       clip-path="url(#clipPath170)" />
    <path
       id="path171"
       d="m 0,0 c -5.095,1.362 -23.723,-7.811 -25.547,-10.089 -1.825,-2.278 0.608,-20.829 0.912,-24.41 0.303,-3.58 8.211,-9.763 17.031,-8.787 8.821,0.977 21.594,5.534 23.724,9.765 2.129,4.23 3.345,15.294 2.433,19.202 C 17.641,-10.415 4.866,-1.302 0,0"
       style="fill:#ffd580;fill-opacity:1;fill-rule:nonzero;stroke:none"
       transform="matrix(1.3333333,0,0,-1.3333333,372.42707,300.87173)"
       clip-path="url(#clipPath172)" />
    <path
       id="path173"
       d="m 0,0 c -0.54,2.31 -5.233,6.446 -9.987,9.707 -5.995,-5.544 -12.429,-12.418 -11.91,-14.265 0,0 1.806,-14.494 3.195,-22.977 7.308,1.905 14.696,5.206 16.269,8.333 C -0.304,-14.971 0.912,-3.907 0,0"
       style="fill:#e8a956;fill-opacity:1;fill-rule:nonzero;stroke:none"
       transform="matrix(1.3333333,0,0,-1.3333333,397.164,319.96413)"
       clip-path="url(#clipPath174)" />
    <path
       id="path175"
       d="m 0,0 c -5.095,1.362 -23.723,-7.811 -25.547,-10.089 -0.676,-0.842 -0.766,-3.915 -0.601,-7.633 7.386,-3.479 22.023,-10.023 25.236,-10.267 3.259,-0.249 11.678,12.646 15.452,18.716 C 10.129,-5.289 3.275,-0.876 0,0"
       style="fill:#fff2bb;fill-opacity:1;fill-rule:nonzero;stroke:none"
       transform="matrix(1.3333333,0,0,-1.3333333,372.42707,300.87173)"
       clip-path="url(#clipPath176)" />
    <path
       id="path177"
       d="m 0,0 c -5.771,1.03 -13.078,-7.484 -13.078,-10.415 0,-2.928 5.474,-13.669 7.3,-14.971 1.824,-1.301 10.037,-2.928 18.248,-1.627 8.212,1.303 33.456,0.976 47.445,0.651 13.991,-0.325 30.11,0 35.89,1.953 5.778,1.953 13.383,1.953 17.944,4.231 4.563,2.279 7.3,4.883 3.65,10.74 -3.65,5.858 -6.996,12.367 -14.295,13.019 C 95.805,4.231 52.313,0.651 42.58,0.651 32.847,0.651 1.825,-0.325 0,0"
       style="fill:#e8890c;fill-opacity:1;fill-rule:nonzero;stroke:none"
       transform="matrix(1.3333333,0,0,-1.3333333,356.63147,284.8704)"
       clip-path="url(#clipPath178)" />
    <path
       id="path179"
       d="m 0,0 c -0.877,1.407 -1.737,2.85 -2.638,4.242 -11.23,-3.719 -22.901,-5.627 -34.681,-6.614 -10e-4,-0.226 -0.148,-0.451 -0.438,-0.452 -30.726,-0.067 -61.641,-7.011 -92.125,-0.739 1.467,-4.293 5.247,-11.346 6.704,-12.385 1.824,-1.301 10.037,-2.928 18.248,-1.627 8.212,1.303 33.456,0.976 47.446,0.651 13.991,-0.325 30.11,0 35.889,1.953 5.779,1.953 13.383,1.953 17.945,4.231 C 0.912,-8.461 3.649,-5.857 0,0"
       style="fill:#c46006;fill-opacity:1;fill-rule:nonzero;stroke:none"
       transform="matrix(1.3333333,0,0,-1.3333333,513.164,297.4544)"
       clip-path="url(#clipPath180)" />
    <path
       id="path181"
       d="m 0,0 c 5.179,2.908 10.247,5.985 14.635,9.916 1.495,1.338 -0.395,3.6 -1.354,4.901 -1.382,1.877 -2.973,3.575 -4.496,5.336 -1.41,1.632 -2.87,3.345 -3.937,5.24 C -0.727,25.365 -7.208,17.655 -7.208,14.896 -7.208,12.013 -1.907,1.57 0,0"
       style="fill:#f4b527;fill-opacity:1;fill-rule:nonzero;stroke:none"
       transform="matrix(1.3333333,0,0,-1.3333333,348.80467,318.6172)"
       clip-path="url(#clipPath182)" />
    <path
       id="path183"
       d="m 0,0 c -1.238,0.023 -2.494,-0.072 -3.76,-0.219 0.061,0.82 -0.13,1.674 -0.692,2.49 -4.368,6.332 -8.736,12.666 -13.105,18.999 -0.231,0.337 -0.489,0.611 -0.757,0.856 -1.669,3.918 -4.217,6.561 -7.875,9.041 -3.267,2.216 -4.336,5.874 -7.014,8.306 0.256,1.325 0.383,2.693 0.557,4.069 0.501,4.002 2.19,5.982 4.146,9.208 1.19,1.963 1.917,4.114 1.723,6.493 -10e-4,0.019 -0.008,0.04 -0.009,0.057 1.323,0.612 2.301,1.933 2.232,3.973 -0.188,5.606 -2.491,9.915 -7.049,12.747 -3.437,2.134 -6.616,-1.398 -6.322,-4.63 -0.168,-0.295 -0.303,-0.604 -0.4,-0.919 -1.22,-4.012 -0.069,-6.267 1.706,-9.787 1.516,-3.005 0.78,-3.068 -1.044,-5.644 -0.768,-1.087 -1.43,-2.128 -1.958,-3.375 -0.722,-1.706 -0.997,-3.227 -1.254,-5.047 -0.356,-2.518 0.626,-5.492 -2.561,-5.05 -1.376,0.191 -3.189,2.984 -4.176,4.096 -2.169,2.443 -4.252,4.983 -6.375,7.473 -3.503,4.108 -8.517,-1.115 -6.688,-5.52 3.04,-7.325 8.386,-13.628 15.305,-16.917 1.527,-0.726 3.111,-1.116 4.615,-1.163 6.355,-3.661 11.695,-8.329 16.277,-14.489 0.438,-0.59 0.957,-0.961 1.504,-1.185 2.255,-3.267 4.507,-6.535 6.762,-9.802 -6.81,-0.223 -13.61,-0.009 -20.429,0.659 -4.797,0.47 -5.758,-7.783 -1.131,-8.949 2.795,-0.707 8.901,-1.084 9.504,-4.609 0.474,-2.775 -1.522,-7.286 -1.411,-10.41 0.175,-4.868 1.613,-11.959 6.113,-14.404 3.879,-2.108 7.982,0.506 9.539,4.465 0.55,1.401 0.705,2.805 0.588,4.21 0.727,1.3 1.19,2.814 1.378,4.478 0.096,0.833 0.173,1.736 0.312,2.627 0.492,0.139 0.997,0.337 1.538,0.605 3.161,1.559 5.196,2.805 8.785,3.167 4.221,0.429 10.59,1.641 10.511,7.61 C 9.018,-1.33 3.801,-0.072 0,0"
       style="fill:#772707;fill-opacity:1;fill-rule:nonzero;stroke:none"
       transform="matrix(1.3333333,0,0,-1.3333333,178.52733,338.19013)"
       clip-path="url(#clipPath184)" />
    <path
       id="path185"
       d="m 0,0 c 0.438,-0.59 0.957,-0.961 1.504,-1.186 2.255,-3.267 4.507,-6.534 6.762,-9.802 -1.851,-0.06 -3.702,-0.082 -5.553,-0.077 2.018,-0.43 4.579,-0.877 6.128,0.148 3.714,2.459 -2.002,8.666 -3.792,10.638 -3.386,3.731 -7.204,7.009 -11.471,9.701 -4.912,3.099 -10.317,5.604 -14.927,9.158 -2.587,1.995 -4.925,4.408 -7.063,6.867 -2.263,2.603 -6.844,7.819 -7.147,12.267 -0.983,-1.382 -1.391,-3.332 -0.638,-5.146 3.04,-7.325 8.386,-13.627 15.305,-16.916 1.527,-0.727 3.111,-1.116 4.615,-1.164 C -9.922,10.828 -4.582,6.159 0,0"
       style="fill:#5b1902;fill-opacity:1;fill-rule:nonzero;stroke:none"
       transform="matrix(1.3333333,0,0,-1.3333333,145.89,318.1256)"
       clip-path="url(#clipPath186)" />
    <path
       id="path187"
       d="M 0,0 C 3.504,1.454 -0.787,7.6 -3.149,8.938 -3.162,8.913 -3.166,8.887 -3.186,8.861 -4.335,7.34 -4.1,5.086 -3.51,3.38 -3.083,2.144 -1.81,-0.75 0,0"
       style="fill:#a03712;fill-opacity:1;fill-rule:nonzero;stroke:none"
       transform="matrix(1.3333333,0,0,-1.3333333,139.87307,252.39253)"
       clip-path="url(#clipPath188)" />
    <path
       id="path189"
       d="m 0,0 c 0.342,-1.521 0.137,-3.105 -1.003,-4.681 -2.507,-3.461 -7.469,-5.105 -11.214,-6.735 -2.039,-0.888 -4.956,-2.13 -4.927,-4.67 0.234,0.095 0.473,0.199 0.72,0.321 3.161,1.559 5.196,2.805 8.785,3.167 4.222,0.429 10.59,1.641 10.511,7.61 C 2.84,-2.543 1.646,-0.982 0,0"
       style="fill:#5b1902;fill-opacity:1;fill-rule:nonzero;stroke:none"
       transform="matrix(1.3333333,0,0,-1.3333333,186.8112,340.19267)"
       clip-path="url(#clipPath190)" />
    <path
       id="path191"
       d="m 0,0 c -3.072,1.808 -2.205,7.375 -1.819,10.217 0.558,4.118 1.878,9.764 -0.777,13.447 -1.543,2.142 -4.274,3.725 -6.89,4.082 -2.228,0.303 -4.526,0.108 -6.738,0.527 0.483,-0.589 1.137,-1.042 1.981,-1.254 2.795,-0.707 8.902,-1.084 9.504,-4.609 C -4.265,19.635 -6.261,15.124 -6.149,12 -5.975,7.132 -4.537,0.041 -0.037,-2.404 3.057,-4.085 6.289,-2.758 8.262,-0.146 5.517,-1.002 2.313,-1.361 0,0"
       style="fill:#5b1902;fill-opacity:1;fill-rule:nonzero;stroke:none"
       transform="matrix(1.3333333,0,0,-1.3333333,147.15493,379.85413)"
       clip-path="url(#clipPath192)" />
    <path
       id="path193"
       d="m 0,0 c -2.018,10.911 -6.898,22.958 -3.752,33.745 0.867,2.309 1.888,4.509 3.077,6.521 2.984,5.053 -4.187,9.234 -7.354,4.599 -2.181,-3.193 -3.556,-6.655 -4.349,-10.257 -1.449,-4.823 -2.331,-9.876 -2.973,-14.836 -0.552,-4.27 -0.367,-8.196 0.402,-12.407 0.68,-3.714 2.176,-7.757 2.507,-11.669 -1.056,-0.136 -2.477,-0.335 -3.043,-0.743 -1.567,-1.13 -2.402,-2.764 -2.731,-4.717 -0.065,-0.387 -0.125,-0.831 -0.148,-1.272 -0.339,0.382 -0.639,0.732 -0.806,0.993 -1.027,1.605 -1.887,3.336 -2.737,5.052 -1.639,3.307 -7.106,2.778 -7.783,-1.088 -0.112,-0.637 -0.181,-1.24 -0.22,-1.828 -0.801,0.218 -1.616,0.327 -2.455,0.418 -0.459,0.05 -7.084,0.569 -6.026,1.585 4.085,3.929 -1.953,10.356 -6.022,6.445 -4.249,-4.089 -3.574,-11.067 0.995,-14.608 2.268,-1.759 5.658,-2.835 8.457,-2.444 0.112,-0.031 0.214,-0.043 0.319,-0.063 -0.25,-0.351 -0.482,-0.737 -0.687,-1.212 -0.597,-1.388 -0.944,-3.242 0,-4.6 1.193,-1.715 2.177,-2.382 3.799,-3.648 2.337,-1.823 2.806,-3.146 4.08,-5.881 0.334,-0.721 0.873,-1.471 1.495,-2.242 -1.801,0.627 -6.056,1.38 -6.966,1.166 -4.47,-1.051 -6.554,-6.709 -3.069,-10.391 4.694,-4.965 14.508,-4.134 20.338,-3.108 1.91,0.335 3.012,2.537 3.127,4.393 0.292,4.749 -2.016,7.219 -4.52,10.232 -0.379,3.068 -1.08,6.009 -1.22,9.062 1.114,-0.309 2.296,-0.36 3.553,-0.032 0.618,0.161 1.171,0.424 1.678,0.75 0.167,-0.025 0.337,-0.046 0.513,-0.051 3.537,-0.118 6.527,1.91 7.764,5.049 1.772,0.739 3.625,1.526 4.572,3.052 C 2.264,-10.088 0.788,-4.266 0,0"
       style="fill:#772707;fill-opacity:1;fill-rule:nonzero;stroke:none"
       transform="matrix(1.3333333,0,0,-1.3333333,274.7064,290.77667)"
       clip-path="url(#clipPath194)" />
    <path
       id="path195"
       d="m 0,0 c -0.018,-1.015 0.144,-5.607 2.311,-4.863 1.546,0.53 1.7,4.234 1.831,5.491 0.31,2.966 0.391,5.953 0.433,8.934 0.041,2.938 0.022,5.878 0.1,8.816 0.003,0.117 0.005,0.236 0.007,0.355 C 3.361,15.513 2.408,12.034 1.559,8.852 0.793,5.979 0.054,2.988 0,0"
       style="fill:#a03712;fill-opacity:1;fill-rule:nonzero;stroke:none"
       transform="matrix(1.3333333,0,0,-1.3333333,256.40947,265.46093)"
       clip-path="url(#clipPath196)" />
    <path
       id="path197"
       d="m 0,0 c 0.112,-0.032 0.214,-0.043 0.319,-0.063 -0.25,-0.352 -0.482,-0.737 -0.687,-1.212 -0.556,-1.293 -0.881,-2.983 -0.163,-4.308 0.078,0.378 0.148,0.757 0.242,1.132 0.29,1.158 1.727,4.897 0.187,5.764 -2.206,1.243 -4.973,1.052 -6.752,3.128 -3.15,3.677 -3.655,10.309 -0.038,13.812 C -7.76,18.191 -8.644,17.827 -9.452,17.051 -13.701,12.963 -13.026,5.984 -8.458,2.443 -6.189,0.685 -2.799,-0.392 0,0"
       style="fill:#5b1902;fill-opacity:1;fill-rule:nonzero;stroke:none"
       transform="matrix(1.3333333,0,0,-1.3333333,228.09173,312.79107)"
       clip-path="url(#clipPath198)" />
    <path
       id="path199"
       d="m 0,0 c -0.372,2.009 -0.841,4.058 -1.339,6.13 -0.048,-3.921 -0.238,-7.963 -1.396,-11.724 -0.621,-2.02 -1.45,-3.899 -2.68,-5.627 -1.484,-2.087 -4.06,-2.886 -5.477,-4.987 -0.82,-1.215 -0.988,-2.762 -2.289,-3.62 -1.585,-1.046 -3.319,-1.599 -4.979,-2.481 -9.284,-4.933 4.25,-16.643 -2.144,-23.08 -0.773,-0.778 -1.701,-1.394 -2.731,-1.866 2.693,0.059 5.295,0.397 7.383,0.765 1.91,0.335 3.012,2.537 3.127,4.393 0.292,4.749 -2.016,7.219 -4.52,10.232 -0.379,3.068 -1.08,6.009 -1.22,9.062 1.114,-0.309 2.296,-0.36 3.553,-0.032 0.618,0.161 1.171,0.424 1.678,0.75 0.167,-0.025 0.337,-0.046 0.513,-0.051 3.537,-0.118 6.527,1.91 7.764,5.049 1.772,0.739 3.625,1.526 4.572,3.052 C 2.264,-10.088 0.788,-4.266 0,0"
       style="fill:#5b1902;fill-opacity:1;fill-rule:nonzero;stroke:none"
       transform="matrix(1.3333333,0,0,-1.3333333,274.7064,290.77667)"
       clip-path="url(#clipPath200)" />
    <path
       id="path201"
       d="m 0,0 c -0.11,1.296 -0.21,2.597 -0.574,3.781 -0.896,2.92 -2.423,5.444 -4.473,7.588 -0.056,0.059 -0.117,0.096 -0.174,0.151 -0.201,0.562 -0.532,1.114 -1.019,1.631 l -0.211,0.222 c -1.478,1.57 -3.385,1.532 -5.16,0.713 -3.612,-1.665 -3.55,-7.447 -2.463,-10.763 0.65,-1.982 1.731,-3.681 3.195,-5.078 0.306,-0.293 1.983,-1.418 3.071,-2.413 0.281,-1.654 0.629,-3.308 1.364,-4.861 1.674,-3.539 6.89,-2.568 7.782,1.089 C 2.038,-5.075 1.478,-2.317 0,0"
       style="fill:#772707;fill-opacity:1;fill-rule:nonzero;stroke:none"
       transform="matrix(1.3333333,0,0,-1.3333333,319.83467,199.55013)"
       clip-path="url(#clipPath202)" />
    <path
       id="path203"
       d="M 0,0 C -1.175,-3.317 -2.651,-8.895 1.35,-9.494 2.552,-9.673 1.241,-5.559 1.144,-5.037 0.833,-3.355 0.609,-1.605 0,0"
       style="fill:#a03712;fill-opacity:1;fill-rule:nonzero;stroke:none"
       transform="matrix(1.3333333,0,0,-1.3333333,304.20573,184.51827)"
       clip-path="url(#clipPath204)" />
    <path
       id="path205"
       d="m 0,0 c -0.087,-0.096 -0.175,-0.189 -0.263,-0.284 -0.784,-0.314 -1.51,-0.91 -2.071,-1.865 -0.155,-0.267 -0.312,-0.544 -0.47,-0.814 -4.154,-4.286 -8.294,-8.499 -9.361,-14.696 -0.65,-3.78 -2.667,-7.001 -3.323,-10.859 -0.649,-3.799 -0.348,-7.444 0.345,-11.204 0.424,-2.298 3.185,-3.958 5.238,-3.183 4.556,1.722 13.757,5.399 7.613,12.147 -1.203,1.321 -2.414,1.338 -2.713,3.266 -0.22,1.409 2.229,5.184 2.756,6.367 1.91,4.296 3.963,8.485 6.247,12.557 0.696,0.708 1.381,1.412 2.024,2.124 C 9.835,-2.226 3.819,4.225 0,0"
       style="fill:#772707;fill-opacity:1;fill-rule:nonzero;stroke:none"
       transform="matrix(1.3333333,0,0,-1.3333333,438.5248,188.93093)"
       clip-path="url(#clipPath206)" />
    <path
       id="path207"
       d="m 0,0 c -0.038,-2.384 -1.68,-5.402 -2.465,-6.875 -2.829,-5.307 -6.451,-10.104 -9.634,-15.19 -0.492,-0.785 -1.072,-1.605 -1.388,-2.483 -0.774,-2.148 -0.074,-4.535 0.205,-6.7 0.49,-3.818 -0.616,-7.531 -3.547,-10.159 -0.582,-0.523 -1.199,-0.973 -1.835,-1.381 1.058,-0.771 2.42,-1.096 3.565,-0.664 4.557,1.722 13.757,5.398 7.614,12.146 -1.203,1.322 -2.414,1.338 -2.713,3.266 -0.22,1.41 2.228,5.185 2.756,6.368 1.91,4.296 3.963,8.485 6.247,12.556 0.696,0.709 1.381,1.412 2.024,2.124 C 3,-4.59 1.982,-1.466 0,0"
       style="fill:#5b1902;fill-opacity:1;fill-rule:nonzero;stroke:none"
       transform="matrix(1.3333333,0,0,-1.3333333,445.4492,188.2012)"
       clip-path="url(#clipPath208)" />
    <path
       id="path209"
       d="m 0,0 c -0.326,-0.101 -0.661,-0.221 -1.005,-0.351 0.439,0.636 0.82,1.313 1.139,2.02 C 0.638,1.409 1.14,1.15 1.593,0.847 2.187,0.838 2.78,0.829 3.375,0.821 2.24,0.593 1.115,0.32 0,0 m -77.695,-7.6 c 0.065,0.147 0.143,0.287 0.204,0.436 0.584,0.542 0.94,0.582 2.111,0.383 -0.778,-0.254 -1.548,-0.532 -2.315,-0.819 M 11.418,2.491 C 10.28,6.141 7.524,6.814 5.135,9.083 4.327,9.848 4.35,13.041 2.658,15.017 c -0.237,0.276 -0.516,0.517 -0.821,0.73 0.829,0.12 1.504,0.226 1.732,0.289 2.254,0.638 4.215,1.772 5.679,3.728 2.233,2.985 0.878,6.908 -2.174,7.601 0.7,0.627 1.35,1.308 1.933,2.064 1.162,1.543 1.764,3.009 2.168,4.925 0.571,2.727 -1.214,5.941 -4.105,5.767 -3.589,-0.214 -6.04,-1.802 -8.248,-4.813 -3.41,-4.649 -5.579,-8.9 -10.508,-12.058 -2.907,-1.864 -2.372,-5.589 -0.425,-7.443 -1.034,-6.334 -9.762,-8.169 -11.867,-14.75 -0.089,-0.281 -0.138,-0.566 -0.164,-0.85 -1.43,-0.715 -2.776,-1.637 -4.183,-2.824 -1.952,-1.645 -1.277,-4.701 0,-6.442 0.616,-0.839 1.304,-1.568 2.04,-2.21 -2.752,-0.881 -5.507,-1.906 -8.311,-1.902 -3.873,0.008 -5.848,1.611 -2.258,4.274 2.02,1.496 4.454,1.548 6.211,3.538 4.298,4.864 0.853,12.169 -5.182,12.141 -4.777,-0.022 -9.683,-3.979 -14.311,-5.185 -5.969,-1.558 -12.351,-1.831 -18.408,-0.671 -2.631,0.504 -5.382,1.567 -8.074,1.699 -0.113,0.539 -0.256,1.066 -0.427,1.584 2.07,0.925 3.612,2.499 5.182,4.185 2.528,2.717 4.079,3.245 7.453,4.109 5.736,1.47 7.584,8.174 13.468,8.625 5.576,0.427 11.052,-1.818 16.641,-0.546 3.504,0.797 8.82,3.125 8.381,7.821 -0.374,4.018 -4.667,6.918 -7.966,7.886 -2.241,0.657 -4.559,0.676 -6.843,0.378 -0.181,-0.024 -0.505,-0.102 -0.912,-0.207 0.951,2.047 0.817,4.769 -0.432,6.615 -0.69,1.016 -1.736,1.788 -2.892,2.177 -0.054,1.964 -1.586,3.559 -3.404,4.046 0.108,0.004 0.218,0.007 0.325,0.011 4.417,0.144 5.535,5.936 2.148,8.49 0.083,-0.011 0.164,-0.024 0.246,-0.034 0.324,0.604 0.497,1.202 0.56,1.777 0.386,0.349 0.742,0.729 1.043,1.217 1.314,2.129 0.927,4.161 0.013,6.299 -0.601,1.407 -2.299,2.274 -3.677,2.258 -2.8,-0.034 -2.772,-0.203 -3.129,3.429 -0.264,2.684 -0.125,5.353 0.121,8.03 0.534,5.832 -7.986,5.793 -8.516,0 -0.46,-5.025 -0.71,-11.618 1.573,-16.252 0.583,-1.181 1.253,-2.037 1.998,-2.666 -1.455,-1.812 -2.396,-3.988 -2.219,-6.95 0.288,-4.819 3.632,-5.6 7.183,-5.648 -0.873,-0.278 -1.695,-0.861 -2.324,-1.872 -1.973,-3.165 -3.167,-6.379 -3.681,-10.161 -0.107,-0.793 -0.059,-1.622 0.131,-2.401 -0.315,-0.728 -0.532,-1.482 -0.636,-2.244 -12.622,-3.546 -25.294,-6.437 -38.461,-4.896 -4.795,0.561 -5.747,-7.785 -1.132,-8.95 0.442,-0.112 0.834,-0.689 1.186,-1.471 -0.01,-0.017 -0.018,-0.029 -0.025,-0.047 -1.411,-3.119 -0.483,-6.71 1.545,-9.228 2.789,-3.459 9.225,-3.734 9.346,-9.08 0.006,-0.365 -0.019,-0.723 -0.072,-1.072 -0.727,-1.127 -1.391,-2.29 -2.209,-3.302 -0.669,-0.279 -1.46,-0.298 -2.343,0.055 -1.494,0.598 -2.444,2.208 -4.1,2.733 -2.844,0.899 -5.919,-0.194 -7.737,-2.663 -2.111,-2.868 -2.146,-6.276 -1.529,-9.725 1.294,-7.233 -0.041,-10.241 -7.136,-11.479 -6.419,-1.117 -12.892,-6.142 -10.007,-13.947 1.41,-3.817 4.457,-5.355 7.029,-8.059 2.94,-3.092 3.268,-7.875 6.518,-10.763 5.667,-5.035 11.641,-0.218 14.027,5.802 1.176,2.96 1.468,5.315 5.217,5.49 3.611,0.171 5.271,-2.467 6.542,-5.48 2.072,-4.907 3.182,-10.425 4.638,-15.566 1.868,-6.595 4.858,-17.472 13.55,-14.843 7.882,2.384 5.671,12.017 4.156,18.203 -1.183,4.826 -3.095,13.8 3.68,14.845 3.886,0.598 7.799,-1.44 11.777,-0.615 7.716,1.6 9.729,10.581 16.473,13.09 3.439,1.283 5.824,1.43 8.359,4.572 2.771,3.431 5.033,8.769 6.568,12.928 1.035,2.803 0.968,5.028 0.186,6.724 4.057,1.038 7.68,3.307 11.609,4.741 3.027,1.107 6.651,1.202 9.062,3.659 2.085,2.123 2.836,5.281 1.911,8.254"
       style="fill:#772707;fill-opacity:1;fill-rule:nonzero;stroke:none"
       transform="matrix(1.3333333,0,0,-1.3333333,523.63027,319.2552)"
       clip-path="url(#clipPath210)" />
    <path
       id="path211"
       d="m 0,0 c 0.433,-2.626 1.033,-5.514 2.415,-7.826 0.341,-0.57 1.532,-2.365 2.2,-1.019 0.647,1.303 0.448,3.134 0.304,4.538 -0.412,3.99 -2.616,6.9 -5.164,9.788 C -0.606,3.699 -0.249,1.511 0,0"
       style="fill:#a03712;fill-opacity:1;fill-rule:nonzero;stroke:none"
       transform="matrix(1.3333333,0,0,-1.3333333,436.64187,407.7292)"
       clip-path="url(#clipPath212)" />
    <path
       id="path213"
       d="m 0,0 c -0.106,-2.242 0.234,-4.572 0.407,-6.759 0.335,-4.248 1.667,-8.5 5.383,-11.048 8.077,-5.539 15.938,2.196 21.743,7.314 3.077,2.712 7.299,3.943 10.166,6.87 1.71,1.747 2.664,3.816 3.668,6.005 0.783,1.709 1.821,3.307 2.318,5.134 1.253,4.611 1.426,9.504 5.881,11.518 -0.537,1.303 -1.742,2.294 -3.107,2.66 0.108,0.004 0.218,0.007 0.325,0.011 3.487,0.114 4.907,3.744 3.689,6.525 -0.883,-0.779 -1.826,-1.497 -2.881,-1.776 -2.054,-0.544 -4.122,0.108 -6.078,0.77 -1.873,0.634 -3.582,1.533 -4.368,2.886 -0.181,-0.855 -0.262,-1.781 -0.201,-2.807 0.288,-4.819 3.632,-5.6 7.183,-5.648 C 43.255,21.377 42.434,20.794 41.804,19.783 39.831,16.618 38.637,13.404 38.123,9.622 38.017,8.829 38.064,8 38.254,7.221 37.939,6.493 37.722,5.739 37.618,4.977 25.266,1.507 12.864,-1.325 0,0"
       style="fill:#5b1902;fill-opacity:1;fill-rule:nonzero;stroke:none"
       transform="matrix(1.3333333,0,0,-1.3333333,397.19267,282.44987)"
       clip-path="url(#clipPath214)" />
    <path
       id="path215"
       d="m 0,0 c -3.117,-0.672 -6.245,-1.285 -9.369,-1.925 -2.16,-0.443 -4.961,-1.012 -6.901,-2.376 5.473,0.326 10.853,-1.81 16.342,-0.561 3.504,0.797 8.82,3.125 8.381,7.821 C 8.426,3.258 8.37,3.548 8.301,3.834 6.654,1.771 2.814,0.607 0,0"
       style="fill:#5b1902;fill-opacity:1;fill-rule:nonzero;stroke:none"
       transform="matrix(1.3333333,0,0,-1.3333333,477.79947,285.33013)"
       clip-path="url(#clipPath216)" />
    <path
       id="path217"
       d="M 0,0 C 1.305,0.236 3.049,0.533 4.185,1.397 2.154,2.354 -0.102,2.627 -2.207,3.324 -3.039,3.168 -3.791,2.883 -4.299,2.371 -6.813,-0.162 -1.231,-0.224 0,0"
       style="fill:#a03712;fill-opacity:1;fill-rule:nonzero;stroke:none"
       transform="matrix(1.3333333,0,0,-1.3333333,474.4792,276.38933)"
       clip-path="url(#clipPath218)" />
    <path
       id="path219"
       d="M 0,0 C 1.072,0.209 2.29,0.265 3.497,0.241 2.079,0.463 0.641,0.468 -0.79,0.334 -0.529,0.216 -0.269,0.099 0,0"
       style="fill:#b20808;fill-opacity:1;fill-rule:nonzero;stroke:none"
       transform="matrix(1.3333333,0,0,-1.3333333,471.50653,270.68493)"
       clip-path="url(#clipPath220)" />
    <path
       id="path221"
       d="m 0,0 c -3.611,1.144 -5.627,4.231 -6.883,7.646 -1.488,4.047 -2.377,8.29 -3.789,12.364 -1.332,3.842 -3.661,10.404 -8.411,11.107 -2.432,0.361 -5.856,0.599 -8.055,-0.699 -1.693,-1.001 -2.813,-2.702 -4.488,-3.705 -2.955,-1.767 -6.603,-0.442 -8.231,2.496 -1.886,3.404 -1.893,8.271 -4.869,11.005 -2.432,2.233 -7.6,1.894 -8.307,5.753 -0.118,0.64 -0.097,1.222 0.014,1.766 -1.878,-2.338 -2.648,-5.438 -1.265,-9.178 1.41,-3.817 4.457,-5.355 7.028,-8.059 2.941,-3.092 3.269,-7.875 6.519,-10.764 5.667,-5.034 11.64,-0.217 14.027,5.803 1.176,2.96 1.468,5.315 5.217,5.49 3.61,0.171 5.27,-2.467 6.542,-5.48 2.072,-4.907 3.181,-10.425 4.638,-15.566 1.868,-6.595 4.858,-17.472 13.549,-14.843 3.243,0.98 4.775,3.189 5.352,5.879 C 5.969,-0.365 2.752,-0.87 0,0"
       style="fill:#5b1902;fill-opacity:1;fill-rule:nonzero;stroke:none"
       transform="matrix(1.3333333,0,0,-1.3333333,436.164,424.64973)"
       clip-path="url(#clipPath222)" />
    <path
       id="path223"
       d="M 0,0 C -0.087,-1.433 -0.125,-2.893 -0.366,-4.311 -0.562,-5.456 1.646,-5.48 2.392,-4.657 4.195,-2.663 3.905,1.06 3.7,3.532 3.534,5.545 3.346,7.879 2.579,9.832 -0.137,8.647 0.141,2.319 0,0"
       style="fill:#a03712;fill-opacity:1;fill-rule:nonzero;stroke:none"
       transform="matrix(1.3333333,0,0,-1.3333333,392.21613,341.57813)"
       clip-path="url(#clipPath224)" />
    <path
       id="path225"
       d="m 0,0 c -0.947,-0.637 -7.178,-3.696 -4.545,-4.888 2.436,-1.103 5.238,2.702 6.484,4.379 C 3,0.918 4.508,2.849 5.015,4.763 3.749,2.842 2.054,1.38 0,0"
       style="fill:#a03712;fill-opacity:1;fill-rule:nonzero;stroke:none"
       transform="matrix(1.3333333,0,0,-1.3333333,516.12627,284.84507)"
       clip-path="url(#clipPath226)" />
    <path
       id="path227"
       d="m 0,0 c -3.345,-0.161 -6.68,-0.961 -9.795,-2.172 -1.197,-0.465 -2.427,-0.885 -3.544,-1.528 -0.474,-0.275 -1.043,-0.561 -1.416,-0.972 -1.101,-1.213 2.356,-1.477 2.304,-1.475 2.935,-0.087 6.857,0.711 9.486,2.107 C -1.696,-3.367 2.078,-0.892 0,0"
       style="fill:#a03712;fill-opacity:1;fill-rule:nonzero;stroke:none"
       transform="matrix(1.3333333,0,0,-1.3333333,471.42973,315.74613)"
       clip-path="url(#clipPath228)" />
    <path
       id="path229"
       d="m 0,0 c -3.673,-4.366 -10.398,-5.206 -15.55,-6.856 -2.699,-0.865 -6.158,-1.609 -7.801,-4.184 -1.062,-1.665 -1.433,-3.565 -1.56,-5.515 -0.23,-3.532 0.1,-7.498 -1.653,-10.72 -2.295,-4.216 -6.811,-5.739 -11.024,-7.384 -3.236,-1.262 -5.815,-2.846 -8.309,-5.279 -1.74,-1.697 -3.453,-3.529 -5.508,-4.854 -2.281,-1.469 -4.602,-2.142 -7.273,-2.51 -2.588,-0.357 -6.728,-0.647 -7.965,-3.45 -0.05,-0.115 -0.083,-0.227 -0.123,-0.34 0.331,0.109 0.681,0.202 1.067,0.26 3.886,0.599 7.8,-1.439 11.777,-0.614 7.716,1.6 9.73,10.58 16.473,13.09 3.439,1.282 5.824,1.43 8.359,4.571 2.771,3.432 5.033,8.77 6.569,12.929 1.034,2.803 0.967,5.027 0.185,6.724 4.057,1.038 7.68,3.306 11.609,4.741 3.027,1.107 6.651,1.202 9.062,3.659 1.683,1.713 2.477,4.1 2.243,6.52 C 0.403,0.521 0.216,0.258 0,0"
       style="fill:#5b1902;fill-opacity:1;fill-rule:nonzero;stroke:none"
       transform="matrix(1.3333333,0,0,-1.3333333,538.526,319.29627)"
       clip-path="url(#clipPath230)" />
    <path
       id="path231"
       d="m 0,0 c -4.014,-1.073 -24.636,-11.716 -26.156,-15.621 -1.521,-3.905 -3.042,-5.533 5.17,-11.066 8.213,-5.533 13.382,-1.953 19.769,0.977 6.387,2.928 12.47,4.881 14.599,8.461 2.129,3.58 2.129,5.533 -0.912,9.113 C 9.428,-4.556 2.433,0.652 0,0"
       style="fill:#ffe67d;fill-opacity:1;fill-rule:nonzero;stroke:none"
       transform="matrix(1.3333333,0,0,-1.3333333,433.68093,239.30667)"
       clip-path="url(#clipPath232)" />
    <path
       id="path233"
       d="m 0,0 c -0.583,0.686 -1.312,1.431 -2.124,2.184 -0.855,-0.982 -1.783,-1.89 -2.7,-2.709 -4.428,-3.961 -9.506,-7.114 -14.598,-10.14 -4.485,-2.665 -8.801,-5.575 -13.11,-8.474 7.683,-4.669 12.701,-1.254 18.845,1.564 6.387,2.929 12.47,4.882 14.599,8.462 C 3.041,-5.533 3.041,-3.581 0,0"
       style="fill:#f9bd67;fill-opacity:1;fill-rule:nonzero;stroke:none"
       transform="matrix(1.3333333,0,0,-1.3333333,450.30733,250.15427)"
       clip-path="url(#clipPath234)" />
    <path
       id="path235"
       d="m 0,0 c -3.984,4.853 -9.732,3.905 -13.078,0.976 -3.345,-2.93 -9.124,-8.136 -11.558,-10.74 -2.433,-2.604 -5.473,-5.207 -3.953,-10.415 1.52,-5.207 0.305,-5.533 3.953,-8.462 3.651,-2.929 6.387,-2.929 11.558,0.651 5.171,3.58 12.47,8.462 16.424,11.391 C 7.3,-13.669 8.82,-10.74 0,0"
       style="fill:#fff2bb;fill-opacity:1;fill-rule:nonzero;stroke:none"
       transform="matrix(1.3333333,0,0,-1.3333333,439.76307,263.60613)"
       clip-path="url(#clipPath236)" />
    <path
       id="path237"
       d="m 0,0 c -3.683,-4.913 -10.011,-8.305 -14.766,-11.511 -4.202,-2.835 -8.141,-6.045 -12.292,-8.957 -0.921,-0.646 -1.849,-1.281 -2.779,-1.913 0.376,-0.884 1.044,-1.66 2.602,-2.91 3.65,-2.929 6.386,-2.929 11.557,0.651 5.171,3.58 12.47,8.462 16.424,11.391 C 4.253,-10.651 5.84,-8.048 0,0"
       style="fill:#ffd580;fill-opacity:1;fill-rule:nonzero;stroke:none"
       transform="matrix(1.3333333,0,0,-1.3333333,443.2292,268.07227)"
       clip-path="url(#clipPath238)" />
    <path
       id="path239"
       d="m 0,0 c 0,0 -6.996,12.692 -15.207,19.202 -8.213,6.509 -16.728,5.532 -31.936,5.206 C -62.35,24.083 -65.695,22.456 -64.783,16.922 -63.871,11.39 -46.535,0.325 -45.622,0.325 -44.709,0.325 -6.387,-1.303 0,0"
       style="fill:#e8890c;fill-opacity:1;fill-rule:nonzero;stroke:none"
       transform="matrix(1.3333333,0,0,-1.3333333,334.5312,350.82813)"
       clip-path="url(#clipPath240)" />
    <path
       id="path241"
       d="m 0,0 c -8.213,6.509 -16.728,5.532 -31.936,5.206 -0.159,-0.003 -0.309,-0.008 -0.465,-0.012 4.567,-3.49 9.27,-6.819 13.845,-10.271 6.375,-4.81 12.395,-10.12 18.999,-14.617 6.786,-0.055 12.603,0.05 14.764,0.492 0,0 -6.996,12.692 -15.207,19.202"
       style="fill:#f4b527;fill-opacity:1;fill-rule:nonzero;stroke:none"
       transform="matrix(1.3333333,0,0,-1.3333333,314.2552,325.2252)"
       clip-path="url(#clipPath242)" />
  </g>
</svg>
